<svg aria-hidden="true" viewBox="0 0 24 24"><path d="M6.152 7.2l1.071-1.072a.439.439 0 0 1 .62 0L8.915 7.2h1.515a.44.44 0 0 1 .439.439v1.514l1.07 1.071a.439.439 0 0 1 0 .62l-1.07 1.071v1.515a.439.439 0 0 1-.44.439H8.915l-1.07 1.07a.439.439 0 0 1-.62 0l-1.072-1.07H4.638a.439.439 0 0 1-.439-.44v-1.514l-1.07-1.07a.439.439 0 0 1 0-.62l1.07-1.072V7.638a.44.44 0 0 1 .439-.439h1.514zm10.154 6.072c.127-.363.511-.363.638 0l.479 1.377c.006.02.017.024.035.015l1.313-.635c.345-.168.617.105.45.45l-.635 1.313c-.009.018-.004.028.015.035l1.377.48c.363.126.363.51 0 .637l-1.377.48c-.02.006-.024.016-.015.034l.635 1.313c.167.345-.105.618-.45.45l-1.313-.635c-.018-.008-.029-.004-.035.015l-.48 1.377c-.126.363-.51.363-.637 0l-.479-1.377c-.006-.02-.017-.023-.035-.015l-1.313.635c-.345.167-.617-.104-.45-.45l.635-1.313c.009-.018.004-.028-.015-.035l-1.377-.48c-.363-.126-.363-.51 0-.637l1.377-.479c.02-.007.024-.017.015-.035l-.635-1.313c-.167-.346.105-.618.45-.45l1.313.635c.018.009.029.004.035-.015l.48-1.377zm-.126-9.064c.096-.277.443-.277.54 0l.112.32.305-.147c.265-.128.51.117.382.382l-.148.305.32.112c.278.097.278.444 0 .54l-.32.112.148.305c.128.265-.117.51-.382.382l-.305-.148-.112.32c-.097.278-.444.278-.54 0l-.112-.32-.305.148c-.264.128-.51-.117-.382-.382l.148-.305-.32-.112c-.278-.097-.278-.443 0-.54l.32-.112-.148-.305c-.128-.265.118-.51.382-.382l.305.148.112-.32z"/></svg>