<svg aria-hidden="true" viewBox="0 0 24 24"><path d="M17 8.1a2.8 2.8 0 1 1 0-5.6 2.8 2.8 0 0 1 0 5.6zm0-1.85a1 1 0 1 0 0-2 1 1 0 0 0 0 2z"/><path fill-rule="evenodd" d="M9.743 18.912a4.182 4.182 0 0 1-2.928-1.182 3.972 3.972 0 0 1-.614-4.962.743.743 0 0 1 .646-.349c.234 0 .476.095.66.275l4.467 4.355c.385.376.39.998-.076 1.275a4.216 4.216 0 0 1-2.155.588M9.855 5c.316 0 .61.14.828.395.171.2.36.416.562.647 1.857 2.126 4.965 5.684 4.965 8.73 0 3.416-2.85 6.195-6.353 6.195-3.505 0-6.357-2.78-6.357-6.195 0-3.082 2.921-6.406 4.854-8.605.242-.275.47-.535.673-.772C9.245 5.14 9.54 5 9.855 5"/></svg>