<svg aria-hidden="true" viewBox="0 0 24 24"><path d="M8.462 18.293l-.29-.002c-.6-.004-1.043-.007-1.259-.007-1.119 0-1.182-1.015-.34-1.734l.196-.164.508-.425 1.543-1.292c1.014-.846 1.74-1.45 2.073-1.723.735-.601 1.305-.596 2.033.022.387.329.959.805 2.207 1.841a377.936 377.936 0 0 1 2.18 1.816c.796.67.742 1.66-.295 1.66h-2.382v1.77c0 .83-.393 1.223-1.258 1.223h-2.994c-.809 0-1.258-.42-1.258-1.207v-1.773l-.664-.005zm0-12.807l-.29.002c-.6.004-1.043.006-1.259.006-1.119 0-1.182 1.016-.34 1.734l.196.164.508.426 1.543 1.29a348.68 348.68 0 0 0 2.073 1.724c.735.601 1.305.596 2.033-.022.387-.328.959-.805 2.207-1.84a377.937 377.937 0 0 0 2.18-1.817c.796-.67.742-1.659-.295-1.659h-2.382v-1.77c0-.832-.393-1.224-1.258-1.224h-2.994c-.809 0-1.258.42-1.258 1.207V5.48l-.664.005z"/></svg>