<svg xmlns="http://www.w3.org/2000/svg" width="1024" height="1024" viewBox="0 0 1024 1024"><path d="M491.856 879.808c-60.48-5.056-110.848-25.184-171.328-55.424-120.96-55.424-216.704-146.112-292.256-256.96-25.248-40.352-30.24-80.64 0-126.016 80.608-115.872 186.464-211.68 317.472-272.096 110.816-50.4 226.752-50.4 337.664 0 136 60.48 241.824 156.224 317.44 282.208 15.104 25.216 25.12 65.504 10.048 85.728-105.792 191.424-256.992 367.84-519.04 342.56zm292.256-377.92c0-151.168-120.96-272.064-272.096-272.064-146.144 0-272.128 126.016-272.128 272.064 0 151.232 120.96 277.216 272.128 277.216 151.104-.032 272.096-125.984 272.096-277.216z"/><path d="M789.808 500.416c0 156.896-125.472 287.52-282.336 282.336-156.864 0-282.336-130.656-282.336-287.488 0-146.4 130.656-277.12 282.336-277.12 156.896-.032 287.584 125.376 282.336 282.272zM512.752 348.832c-83.68 0-151.584 67.968-151.584 151.584 0 88.864 67.968 156.896 151.584 156.896 83.648 0 156.832-73.216 156.832-156.896-5.184-83.648-73.152-151.584-156.832-151.584z"/></svg>
