<svg aria-hidden="true" viewBox="0 0 24 24"><path d="M4.874 16.379l-.259.723c-.144.506-.62.824-1.082.684-.459-.14-.694-.671-.55-1.19l.842-2.562c.127-.459.528-.774.952-.721l2.869.284c.499.062.896.488.819 1.003-.077.51-.491.755-.981.694l-.978-.091c1.537 2.742 3.05 4.336 4.494 4.859V8.75H9a1 1 0 1 1 0-2h2v-.351c-.876-.374-1.494-1.223-1.494-2.223 0-1.35 1.127-2.426 2.494-2.426 1.367 0 2.494 1.075 2.494 2.426 0 1-.618 1.85-1.494 2.223v.351h1.78a1 1 0 1 1 0 2H13v11.347c1.433-.478 2.895-2.046 4.342-4.795l-.925.118c-.516.102-1.016-.177-1.1-.653-.085-.472.282-.923.81-1.03l2.665-.413c.467-.095.93.119 1.075.52l1.049 2.686c.17.473-.028 1.02-.522 1.185-.489.163-.896-.095-1.064-.56l-.303-.763c-2.064 3.855-4.361 5.863-6.971 5.863-2.607 0-4.973-2.008-7.182-5.876zM12 4.602c.283 0 .494-.202.494-.426 0-.225-.211-.426-.494-.426-.283 0-.494.201-.494.426 0 .224.211.426.494.426z"/></svg>