<svg aria-hidden="true" viewBox="0 0 24 24"><path d="M12.535 9.818c-.876-2.195-1.675-3.443-3.489-5.302-.749-.775-1.6-1.365-2.466-1.947-.673-.407-1.425.188-.992.769 1.183 1.51 3.22 4.33 3.96 5.918.965 2.068 1.272 4.062 1.432 6.16.225 2.322-.577 4.651.197 5.64.53.684 2.366.874 2.956 0 .638-.915.276-3.78 0-5.407-.237-1.782-.929-4.154-1.598-5.831zm8.825 1.189c.32-.554-.38-.95-.809-.592-.514.397-1.563 1.398-2.132 2.162-.848 1.139-1.445 1.721-2.353 4.21-.496 1.378-1.254 3.406-.427 4.306 1.083 1.179 2.644-.357 2.78-1.05.445-.628.319-2.164.502-3.408.263-1.784.537-2.633 1.57-4.318.51-.83.457-.659.87-1.31z"/><path d="M8.983 14.916c-.73-1.7-2.072-3.436-3.353-4.423-1.024-.789-1.738-1.325-2.493-1.741-.433-.246-1.017.045-.58.688.397.605 1.69 1.847 2.307 2.629.616.782 1.078 1.269 1.665 3.226s.24 2.705.843 4.44c.54 1.413 1.629 2.005 2.523.733.564-1.37-.184-3.852-.912-5.552zm9.259-8.711c-.314.48-.695.838-1.574 3.063-1.007 2.365-.507 5.15-1.336 4.957-.575 0-1.2-1.846-.937-3.705.362-1.252.362-1.615.937-2.727.405-.911 1.377-1.649 2.234-2.203.487-.269.99.134.676.615z"/></svg>