<svg aria-hidden="true" viewBox="0 0 24 24"><path d="M7.006 0l-.192.729-.238-.652-.038 1.108-.107-.677-.03.644L5.997.54l.276.637L5.69.688l.466.53-.709-.292.757.425-.855-.073 1.084.108-.155.87-.107-.754-.031.695-.437-.66L6 2.22l-.628-.526.501.571-.762-.315.814.458-.92-.08 1.13.134-.08 1.055-.156-.914-.043.885-.559-.842.381.882-.806-.676.644.734-.98-.405 1.046.588-1.183-.101.931 1.335-.912-.765.729.831-1.109-.458 1.184.665-1.337-.115 1.674.182-.14 1.274-.145-1.122-.05 1.001-.631-.952.43.997-.911-.764.728.83-1.108-.458 1.184.665L3.578 6.7l1.666.185L5.2 8.324l-.15-1.11-.048 1-.632-.951.43.997-.911-.765.729.83-1.109-.457 1.184.665-1.232-.001 1.542.078.05 1.236-.355-1.057.181.873-.76-.732.596.801-.96-.529.816.613-.966-.116 1.077.284-1.184.096 1.392-.032-1.04 9.27-1.15-8.362 1.263.022-1.075-.065 1.065-.273-.964.159.741-.415-.872.358.54-.542-.689.496.165-.592-.322.716.045-.838 1.496-.13-1.215.078.885-.287-.044-.028.015-.011-.045-.008.045.008.014-.067-.801.253.661-.563-.828.518.391-.675-.573.645-.044-.678-.137.752-.038-.974 1.512-.126-1.214.078.893-.291-.02-.012.043-.035-.113-.007.113.007.005-.056-.853.254.662-.563-.828.518.391-.676-.574.645-.044-.678-.132.76-.127-.863 1.52-.123-1.214.077 1.074-.45-1.006.31.662-.563-.828.518.845-.904-1.074.068.95-.398-.89.274.585-.497-.732.458.346-.598-.508.57-.039-.6-.141.62-.073-.714 1.026-.09-.836.053.74-.31-.693.213.456-.387-.57.357.269-.465-.396.448-.03-.47-.096.51-.14-.59.983-.073-.775.05.686-.288-.643.198.423-.36-.53.332.25-.432-.367.416-.027-.437-.097.459-.034-.751-.216.442-.175-.494.055.435-.386-.375.301.423-.562-.306.492.366L0 4.537l.549.431.338.36-.613-.239.57.305-.724-.132.703.204-.72.035.892.63-.665-.26.619.33-.787-.143.764.221-.783.039.645.45.305.326-.838-.328.78.417-.99-.18.953.278-.978.049 1.26.778-.989-.28.947.382-1.117-.107 1.101.216-1.047.14 1.318.777-.988-.28.946.382-1.117-.107 1.101.216-1.047.14.794.34.58.46-.989-.28.947.382-1.117-.107 1.101.216-1.047.14 1.412-.14 1.579 9.345h.132L3.774 20l.483-1.313.815-5.636.821.07-1.304 4.663 1.829-4.967 1.021.253-.751-.224.85-.125-.844.016.763-.303-.777.198.57-.461-.742.457.354-.643-.466.574.413-.858 1.018.25-.751-.224.85-.125-.844.016.763-.303-.777.198 1.102-.663-.752-.224.85-.125-.844.016.764-.303-.777.198 1.059-.67-.715-.127.75-.199-.762.1.645-.35-.673.256.28-.298.55-.395-.573-.1.602-.159-.606.08.513-.28-.535.205.763-.551-.527-.093.553-.146-.557.073.472-.257-.493.188.31-.33.476-.383-.526.098.424-.323-.466.258.292-.394-.346.34.111-.427-.21.475-.087-.455-.149.741.004-.462-.092.43-.204-.44.114.447-.337-.37.254.39-.443-.248.46.34-.565-.112.716.152-.202.573.013-.514-.098.464-.192-.415.08-.022-.108-.038.013.05-.253.033-.882.113 1.043-.563-1.089.412L7.67 6.364l-1.154-.208 1.213-.319-1.23.158 1.043-.563-1.089.412L7.84 4.696l-1.077-.072 1.05-.41-1.09.266.858-.615-.922.483.336-.48.71-.666-.862-.056.84-.327-.866.211.682-.488-.733.384.984-.928-.795-.052.775-.301-.798.195.628-.45-.675.353.373-.533.604-.635L7.116.8 7.66.262l-.62.451.332-.623-.425.552.06-.642zm-.014 2.53l-.405.432.405-.432zm-.125 2.797l-.667.54.667-.54zM2.335 7.263l-.218.245.218-.245zm3.632.263l.025-.016-.026.02.001-.004zm1.213.059l.222-.058.106.419-.328-.361zm-.898.236l.89-.234.247.38-.477-.267.365.27-.028-.013.124.084-1.121-.22zm-.397.005l1.098.203-.017.015.607.075-.172.702-.003-.626-.127.592-.282-.606.158.62-.466-.513.351.54-.493-.276.104-.11-.225.043.09.066-.839.678.362-.997-.542.913.396-1.32zm2.256.4l-.32.26.32-.26zm-1.614.34l.36.264-.163-.029.332.155-.246-.024.073-.037H6.43l.076.122-.585.19.605-.642zm.013.503l.11.183-.683.107.573-.29zm-.055.379l-.034-.041.28-.008.01.195-.256-.146zm.322.05l.102.164-.003.011-.099-.174zm-.822.021l.493.057.21.151-.525-.052.483.266-.885-.174 1.104.244-.235.845.027-.764-.144.67-.319-.686.178.7-.527-.58.397.612-.694-.389.722.533-.87-.171.183-1.26 1.032.154-.63-.156zm.574.017l.182.066.002.033-.184-.099zm.323.19l.012.005-.004.02-.008-.025zm-5.618.237l.649.278.078.16-.727-.438zm6.482.132l-.508.314.508-.314zm-2.345.686l1.081.243-.188.962.023-.757-.144.669-.319-.685.179.701-.274-.3-.358-.833zm1.515.716l-.02.012.02-.012zm-1.685.455l.05-.342.649.48-.699-.138zm-.114.788l.114-.783.898.207-.104.834-.12-.736.024.6-.429-.547.311.58-.586-.425.48.471-.588-.2zm-.044.304l.043-.29.645.309-.688-.02zm-.816 5.643l-.085.591.417-1.494-.332.903z" fill-rule="evenodd"/></svg>