<svg aria-hidden="true" viewBox="0 0 24 24"><path d="M17.371 13.564l-2.189.915a.5.5 0 1 0 .386.923l2.345-.98c.427.597.896 1.056 1.378 1.15 1.603.311 2.662 1.749 2.471 2.732-.148.76-.95 2.442-5.193 1.617-1.914-.372-5.413-3.19-7.292-4.705-.346-.278-.632-.51-.84-.668-.33-.255-.973-.58-1.717-.958-2.204-1.118-4.947-2.51-4.588-4.356.194-.997.908-1.567 1.538-2.07.385-.307.748-.598.944-.944.344-.61 1.555-2.582 2.692-2.361.572.111 1.05.76 1.558 1.448.272.37.554.751.776.922.514.395 1.37.597 1.796.684 1.158-.776 2.254-1.438 3.032-1.287.639.125.813 1.173 1.079 2.76l.042.254a.498.498 0 0 0-.251.035l-3.175 1.328a.5.5 0 1 0 .385.922l3.176-1.327a.507.507 0 0 0 .034-.016c.116.596.254 1.166.433 1.606l-2.519 1.053a.5.5 0 1 0 .386.923l2.558-1.07c.216.451.471.971.755 1.47z"/></svg>