<svg aria-hidden="true" viewBox="0 -2 24 24">
  <path fill="none" d="M2.4984 16c-.8445 0-1.253-.524-.8296-1.2721.4234-.7482 3.3336-7.2415 3.7006-7.7046.367-.4631 1.1702-.6318 1.7688 0 .399.4212.9469.9432 1.6433 1.5662 1.867-4.103 2.949-6.4416 3.2463-7.0158.3962-.765 1.6116-.765 2.0753 0S19.899 13.967 20.3205 14.728c.4215.761.075 1.2721-.7712 1.2721H2.4983z" stroke="currentColor" stroke-width="1.5" stroke-linecap="round" stroke-linejoin="round"/>
  <path fill="currentColor" d="M3.5203 10.8955c.5086 1.0199 1.309 1.2942 2.4013.823 1.9682-.849 1.6894-2.2036 4.8258-.9574 3.644 1.4479 3.5337-2.9054 6.7648-1.7885 1.3432 2.8008 2.6126 5.4377 2.8083 5.7832.4215.7443.075 1.2442-.7712 1.2442H2.4983c-.8444 0-1.2529-.5124-.8295-1.2442.2145-.3706 1.0383-2.129 1.8515-3.8603z" />
</svg>
