<svg aria-hidden="true" viewBox="0 0 24 24"><path d="M10.275 9.916l-.096-.055a1.163 1.163 0 0 1-.526-.632c-.022-.061-.038-.124-.058-.185-.002-.007-.007-.014-.013-.026-.012.017-.021.027-.027.04l-.103.2a4.72 4.72 0 0 1-.391.642 2.8 2.8 0 0 1-.356.413l-.089.079-.029.033c.033.034.068.06.103.087.081.062.16.128.23.203.056.057.11.115.164.173l.051.052a4.747 4.747 0 0 1 1.14-1.024M9.24 19.999a.44.44 0 0 1-.066-.082 2.29 2.29 0 0 0-.563-.619 3.44 3.44 0 0 0-.604-.368.077.077 0 0 0-.081.003 5.133 5.133 0 0 1-.894.424c-.213.076-.43.136-.654.174a3.49 3.49 0 0 1-.763.037c-.05-.002-.1-.009-.15-.014l-.012-.002c-.04-.005-.072-.024-.085-.064-.014-.041-.002-.078.032-.107l.075-.065c.114-.1.23-.196.34-.3.409-.385.72-.839.938-1.357.123-.293.218-.596.292-.906a7.82 7.82 0 0 0 .14-.745c.029-.216.058-.431.082-.647.022-.191.038-.383.056-.574l.058-.593.063-.63c.026-.29.038-.581.027-.872a2.979 2.979 0 0 0-.125-.778 1.685 1.685 0 0 0-.253-.509c-.12-.16-.27-.285-.444-.38a.655.655 0 0 0-.256-.081c-.048-.005-.095-.014-.143-.022a.1.1 0 0 0-.086.023 1.469 1.469 0 0 1-.249.157 1.16 1.16 0 0 1-.312.11.922.922 0 0 1-.587-.075 1.334 1.334 0 0 1-.363-.254 7.01 7.01 0 0 1-.083-.082c-.016.008-.031.013-.045.022a3.162 3.162 0 0 1-.44.225 2.05 2.05 0 0 1-.454.124 1.352 1.352 0 0 1-.312.01 1.427 1.427 0 0 1-.575-.164 1.77 1.77 0 0 1-.268-.174 1.22 1.22 0 0 1-.338-.4 1.171 1.171 0 0 1-.113-.356 1.38 1.38 0 0 1-.005-.4v-.032c0-.003-.003-.007-.006-.015-.012-.001-.026-.005-.04-.005-.13 0-.259-.008-.388-.024a2.276 2.276 0 0 1-.67-.173 1.364 1.364 0 0 1-.712-.676 1.467 1.467 0 0 1-.13-.373c-.023-.114-.047-.23-.048-.347 0-.04-.004-.08-.006-.119 0-.013-.006-.025-.021-.027v-.1c.016-.002.02-.014.021-.027.001-.03 0-.059.002-.088.014-.208.04-.416.08-.621a2.92 2.92 0 0 1 .285-.814 1.843 1.843 0 0 1 .858-.814c.213-.097.437-.153.669-.182.068-.01.137-.013.206-.02.117-.01.234-.004.35 0 .076.002.15.012.226.018.01 0 .022-.004.039-.006-.009-.027-.015-.049-.023-.07a2.789 2.789 0 0 1-.198-.901 2.47 2.47 0 0 1 .164-.977 2.95 2.95 0 0 1 .411-.737 1.72 1.72 0 0 1 .427-.411c.123-.081.254-.145.395-.189.153-.046.31-.065.47-.063.054.001.109.002.163.008.1.01.198.03.295.055.014.003.028 0 .042 0l.008-.019.021-.072c.073-.275.182-.534.334-.774A2.217 2.217 0 0 1 6.287.241a3.16 3.16 0 0 1 .956-.214l.182-.015c.011 0 .022-.008.033-.012h.327c.008.013.021.012.033.013l.176.014c.268.018.53.074.782.167.32.118.602.298.846.537.208.205.371.442.503.7.12.235.214.481.283.737l.018.052c0 .002.003.003.006.005.02 0 .026-.017.036-.029.069-.082.133-.167.204-.246.14-.156.294-.298.462-.424a2.46 2.46 0 0 1 .562-.303 2.125 2.125 0 0 1 .857-.125 3.703 3.703 0 0 1 1.326.373c.312.156.592.358.842.603.202.197.379.414.53.651a3.4 3.4 0 0 1 .346.68c.05.143.092.288.112.437a1.64 1.64 0 0 1-.099.85l-.009.03.001.015c.016.016.04.017.06.023.126.035.249.075.37.124.218.087.424.197.61.342.283.219.49.494.62.829.063.165.107.334.133.508.009.056.014.112.015.168v.578c0 .044-.007.087-.013.13a4.849 4.849 0 0 1-.099.55 2.654 2.654 0 0 1-.132.404c-.07.164-.15.323-.256.467-.127.174-.281.32-.463.436-.152.098-.316.17-.49.222-.082.023-.166.04-.25.06l-.034.011c-.01.056-.02.109-.032.162a.845.845 0 0 1-.068.195.637.637 0 0 1-.342.325.644.644 0 0 1-.181.047l-.03.004c-.015.023-.015.046-.015.068a.88.88 0 0 1-.294.63c-.11.1-.235.174-.37.233a3.071 3.071 0 0 1-.682.208 5.61 5.61 0 0 1-.285.044c-.058.006-.117.005-.175.006-.061 0-.122 0-.183-.002a2.013 2.013 0 0 1-.641-.133 2.269 2.269 0 0 1-.446-.228 2.615 2.615 0 0 1-.473-.41c-.026-.028-.05-.057-.08-.083-.044.017-.082.044-.12.07a1.685 1.685 0 0 0-.407.404c-.251.35-.414.739-.506 1.16a4.66 4.66 0 0 0-.09.625 5.988 5.988 0 0 0-.02.627c.006.189.013.377.032.564.015.148.027.296.043.443.012.115.029.229.044.343.018.14.035.282.055.422.02.148.04.295.065.441.034.204.07.408.11.61.078.386.177.767.314 1.136.104.277.228.543.39.792.178.277.375.539.59.788.125.146.257.286.386.429.014.015.03.03.041.047a.096.096 0 0 1-.01.116.084.084 0 0 1-.069.027c-.064-.002-.13-.002-.194-.006-.11-.007-.221-.013-.331-.025a8.044 8.044 0 0 1-.373-.05 6.078 6.078 0 0 1-.99-.246 7.221 7.221 0 0 1-.627-.24l-.16-.074c-.012-.005-.026-.008-.043-.013v.047c.005.073.012.146.016.219a.955.955 0 0 1-.02.23 1.423 1.423 0 0 1-.11.34c-.004.01-.01.019-.012.029a.17.17 0 0 1-.064.09h-.075" fill-rule="evenodd"/></svg>
