<svg aria-hidden="true" width="24" height="24" viewBox="0 0 24 24"><path d="M12.398 9.988c-.886-2.222-1.682-3.438-3.467-5.267-.62-.642-1.251-1.124-2.425-1.913-.267-.162-.428-.036-.363.051 1.655 2.113 3.447 4.723 4.115 6.157.906 1.942 1.31 3.837 1.51 6.472l.005.049c.074.81.048 1.513-.059 2.773-.15 1.773-.132 2.33.154 2.694.392.507 1.853.565 2.221.02.426-.61.334-2.71-.086-5.185-.222-1.676-.883-4.043-1.605-5.85zm9.07.781l-.001.002.001-.002zm-.004.006a.132.132 0 0 0-.087.035c-.59.456-1.596 1.456-2.088 2.117-.125.168-.516.679-.558.734-.196.26-.343.467-.485.686-.446.687-.838 1.503-1.297 2.76-.198.552-.166.463-.226.635-.14.402-.247.736-.334 1.054-.304 1.113-.3 1.865.02 2.214.322.35.703.364 1.164.09.41-.245.78-.696.824-.922l.083-.193c.168-.238.239-.699.304-1.83l.026-.438c.026-.404.055-.714.098-1.006.29-1.964.618-2.884 1.675-4.61.246-.401.36-.572.533-.812l.001-.001c.134-.186.204-.289.347-.513zM3.112 9.213c.173.244.46.565 1.19 1.348l.03.033c.553.593.832.905 1.068 1.205.033.04.245.308.306.386.294.376.493.669.693 1.044.278.521.53 1.164.793 2.039.258.86.341 1.381.442 2.437l.021.217c.075.74.169 1.225.388 1.857.465 1.214 1.097 1.466 1.674.688.394-1.057-.04-3.119-.951-5.246-.701-1.635-2.012-3.355-3.28-4.331C4.29 9.968 3.72 9.559 3.113 9.213zM18.213 5.94c-1.052.689-1.731 1.321-2.042 2.017a7.136 7.136 0 0 0-.602 1.521c.023-.084-.22.835-.306 1.114a6.068 6.068 0 0 0 .144 2.404c.085.302.19.55.296.71.042-.17.079-.422.123-.82l.068-.622c.03-.26.057-.483.088-.702.08-.564.18-1.068.315-1.55a7.94 7.94 0 0 1 .333-.957c.39-.987.712-1.689 1.003-2.213a7.64 7.64 0 0 1 .343-.56c.052-.078.185-.268.237-.342zm-2.419 7.882l.046.005a.208.208 0 0 0-.046-.005z" fill="none" stroke="currentColor"/></svg>