<svg viewBox="0 0 1024 1024" xmlns="http://www.w3.org/2000/svg"><path stroke="currentColor" d="M302.545 139.636h442.182V58.182C744.727 26.049 770.777 0 802.91 0c32.133 0 58.182 26.049 58.182 58.182v81.454h89.514c40.535 0 73.395 32.86 73.395 73.395v737.574c0 40.535-32.86 73.395-73.395 73.395H73.395C32.86 1024 0 991.14 0 950.605V213.031c0-40.535 32.86-73.395 73.395-73.395h112.787V58.182C186.182 26.049 212.23 0 244.364 0s58.181 26.049 58.181 58.182v81.454zM93.091 418.91v475.303c0 20.267 16.43 36.697 36.697 36.697h764.424c20.267 0 36.697-16.43 36.697-36.697V418.909H93.091z" /></svg>