<svg viewBox="0 0 1024 1024" xmlns="http://www.w3.org/2000/svg"><path stroke="currentColor" d="M540.444 526.222V268.516c0-22.756-18.204-40.96-40.96-40.96h-3.413c-22.755 0-40.96 18.204-40.96 40.96V537.03c0 19.911 10.24 38.685 27.876 48.925L690.63 710.542c19.342 11.378 44.373 5.69 55.751-13.653 11.947-19.911 5.69-45.511-14.222-56.889L540.444 526.222zM512 0C229.262 0 0 229.262 0 512s229.262 512 512 512 512-229.262 512-512S794.738 0 512 0zm0 910.222c-219.591 0-398.222-178.63-398.222-398.222 0-219.591 178.63-398.222 398.222-398.222 219.591 0 398.222 178.63 398.222 398.222 0 219.591-178.63 398.222-398.222 398.222z" /></svg>