<svg viewBox="0 0 1024 1024" xmlns="http://www.w3.org/2000/svg"><path stroke="currentColor" d="M972.054 512.215c30.42.016 54.698 26.466 51.093 56.884-15.856 144.125-91.468 285.682-231.57 374.331-171.597 108.55-387.797 107.347-558.427-3.2-290.54-187.747-308.864-587.564-58.744-811.595C378.194-54.138 699.785-40.926 886.76 160.527c14.131 14.131 14.144 37.308.028 51.424L612.793 485.946c9.434 34.046.763 71.705-26.02 98.489-39.815 39.814-105.001 39.779-144.858-.079-39.858-39.857-39.893-105.043-.079-144.857 26.784-26.784 64.08-35.093 98.49-26.021l77.456-77.457c-78.61-46.035-181.092-36.312-248.414 31.01-90.849 90.849-78.452 245.129 36.387 318.706 61.948 39.507 143.07 41.724 206.788 6.269 56.84-31.476 90.853-82.882 102.412-137.922 5.057-23.899 25.327-41.995 49.953-41.982h.724c30.782.38 56.147 27.916 50.37 58.333-11.195 58.3-39.05 113.692-84.294 158.936C602.855 858.224 387.374 848.33 271.77 700.15c-83.351-106.516-85.97-261.153-5.633-369.753 103.86-140.093 293.249-162.806 425.844-68.576l73.114-73.114C604.235 63.32 372.107 74.42 224.432 222.095 45.992 400.535 65.35 705.109 286.7 853.345c131.868 87.71 300.992 91.786 440.01 10.016 119.108-69.829 181.695-187.492 195.03-305.906 2.884-26.072 24.24-45.255 50.314-45.24z" /></svg>