<svg viewBox="0 0 24 24" xmlns="http://www.w3.org/2000/svg">
    <g id="Symbols" stroke="none" stroke-width="1" fill="none" fill-rule="evenodd">
        <g id="Radar" fill="#000000">
            <g id="Group-2">
                <path d="M512.487587,1023.84497 C230.044772,1023.84497 1.0301383,794.833489 1.0301383,512.272025 C1.0301383,229.710561 230.044772,0.699075828 512.487587,0.699075828 C794.930403,0.699075828 1023.94504,229.710561 1023.94504,512.272025 C1023.94504,794.833489 794.930403,1023.84497 512.487587,1023.84497 Z M512.487587,950.059557 C754.369297,950.059557 950.403673,754.027877 950.403673,512.272025 C950.403673,270.516173 754.369297,74.4844929 512.487587,74.4844929 C270.605878,74.4844929 74.5715022,270.516173 74.5715022,512.272025 C74.5715022,754.027877 270.605878,950.059557 512.487587,950.059557 Z" id="Oval-2" fill-rule="nonzero"></path>
                <path d="M512.487587,812.875978 C346.561333,812.875978 212.002035,678.31853 212.002035,512.272025 C212.002035,346.22552 346.561333,211.668072 512.487587,211.668072 C678.413842,211.668072 812.97314,346.22552 812.97314,512.272025 C812.97314,678.31853 678.413842,812.875978 512.487587,812.875978 Z M512.487587,739.090561 C637.852736,739.090561 739.431776,637.512918 739.431776,512.272025 C739.431776,387.031132 637.852736,285.453489 512.487587,285.453489 C387.122439,285.453489 285.543399,387.031132 285.543399,512.272025 C285.543399,637.512918 387.122439,739.090561 512.487587,739.090561 Z" id="Oval-2" fill-rule="nonzero"></path>
                <path d="M512.487587,637.088676 C443.602092,637.088676 387.733429,581.220782 387.733429,512.272025 C387.733429,443.323268 443.602092,387.455374 512.487587,387.455374 C581.373083,387.455374 637.241746,443.323268 637.241746,512.272025 C637.241746,581.220782 581.373083,637.088676 512.487587,637.088676 Z" id="Oval-3" fill-rule="nonzero"></path>
                <polyline id="Path-2" points="805.122772 384.873518 516.612306 528.293018 685.234922 41.8339827 966.344726 304.729555 805.122772 384.873518"></polyline>
            </g>
        </g>
    </g>
</svg>
