<svg width="1024" height="1024" viewBox="0 0 1024 1024" xmlns="http://www.w3.org/2000/svg"><title>Overlays_TempPlots</title><g transform="translate(178.5)" fill-rule="evenodd"><ellipse cx="156.29" cy="868.6" rx="155.909" ry="154.456"/><path d="M516.84 297.394c-82.896 0-150.097-66.574-150.097-148.697S433.943 0 516.84 0c82.896 0 150.096 66.574 150.096 148.697s-67.2 148.697-150.096 148.697zm0-57.132c51.046 0 92.427-40.995 92.427-91.565s-41.381-91.565-92.427-91.565c-51.047 0-92.428 40.995-92.428 91.565s41.381 91.565 92.428 91.565zM58.05 154.63v445.85c0 53.992 43.91 97.5 98.24 97.5 54.136 0 98.239-43.708 98.239-97.5V154.63c0-53.991-43.91-97.498-98.24-97.498-54.136 0-98.238 43.706-98.238 97.498zm-57.668 0C.382 69.23 70.359 0 156.29 0c86.105 0 155.908 69.013 155.908 154.63v445.85c0 85.4-69.978 154.63-155.908 154.63C70.184 755.11.382 686.099.382 600.48V154.63z" fill-rule="nonzero"/><path d="M.382 514.184h311.816v140.261c0 55.23-44.78 100.001-100.001 100.001H100.383c-55.23 0-100.001-44.769-100.001-100V514.183z"/></g></svg>
