<svg width="1024" height="1024" viewBox="0 0 1024 1024" xmlns="http://www.w3.org/2000/svg"><title>Alerts_Flood</title><path d="M833.909 192.022v-1.943a19.34 19.34 0 0 0-.864-2.677v-1.122l-1.381-1.64-.95-1.555-.734-.863-1.813-2.202a19.083 19.083 0 0 0-10.189-5.483H206.827a19.278 19.278 0 0 0-11.052 5.483l-1.813 2.072v.863l-.864 1.512-.95 1.813v1.122c-.388.864-.647 1.77-.863 2.677v1.943a14.587 14.587 0 0 0 0 1.942v425.941c4.317 0 8.505-.993 13.124-.993h.82c22.71.993 45.03 5.742 66.184 13.988l4.879 1.64a133.287 133.287 0 0 0 29.66 8.247h.82a156.648 156.648 0 0 0 27.932-8.073l2.98-.993a207.98 207.98 0 0 1 69.896-13.988 205.85 205.85 0 0 1 69.896 13.988l3.238 1.122a142.706 142.706 0 0 0 27.976 7.944h.82a143.05 143.05 0 0 0 27.976-8.073l2.331-.864c22.709-8.678 46.713-13.427 70.933-13.945a204.15 204.15 0 0 1 69.896 14.636l2.806.993a118.806 118.806 0 0 0 27.976 7.857 123.775 123.775 0 0 0 29.099-7.987l3.065-1.122c21.932-8.678 45.202-13.384 68.774-13.988a151.69 151.69 0 0 1 21.672 1.684v-427.84c0-.735-.043-1.426-.13-2.116zM324.084 316.877c0-4.792 3.885-8.678 8.72-8.678h114.624a8.678 8.678 0 0 1 8.678 8.678v73.825a8.678 8.678 0 0 1-8.678 8.678H332.934a8.678 8.678 0 0 1-8.678-8.678l-.172-73.825zm132.324 249.192c0 4.75-3.886 8.635-8.678 8.635H332.934c-4.792 0-8.678-3.886-8.678-8.635v-73.307c0-2.288.907-4.49 2.548-6.087 1.597-1.64 3.842-2.547 6.13-2.547h114.494c4.792 0 8.678 3.842 8.678 8.634l.302 73.307zm242.716 0c0 4.75-3.885 8.635-8.678 8.635H576.04c-4.749 0-8.635-3.886-8.635-8.635v-73.307c0-4.792 3.886-8.634 8.635-8.634h114.84c4.791 0 8.677 3.842 8.677 8.634l-.432 73.307zm0-175.756c0 2.289-.95 4.49-2.547 6.088a8.661 8.661 0 0 1-6.13 2.547H576.038c-4.749 0-8.635-3.842-8.635-8.635v-73.436c0-4.792 3.886-8.678 8.635-8.678h114.84a8.678 8.678 0 0 1 8.677 8.678l-.432 73.436zm157.593 376.53c-14.16-6-29.185-9.67-44.468-10.793-15.24 1.123-30.177 4.75-44.209 10.793a171.116 171.116 0 0 1-57.333 12.866c-19.6-.907-38.898-5.224-57.03-12.866a135.096 135.096 0 0 0-44.469-10.793c-15.628 1.036-30.911 4.663-45.288 10.793a169.892 169.892 0 0 1-55.951 12.866 172.088 172.088 0 0 1-55.909-12.866c-14.808-6.217-30.566-9.843-46.583-10.793-15.542 1.123-30.782 4.792-45.159 10.793-17.787 7.296-36.74 11.614-55.908 12.693-19.687-1.08-39.028-5.397-57.333-12.693-14.075-5.871-29.012-9.54-44.209-10.922-15.37 1.381-30.48 5.05-44.727 10.922-18.132 7.21-37.3 11.527-56.772 12.693-19.212-1.122-38.121-5.44-55.908-12.693A150.044 150.044 0 0 0 0 756.05v-27.933c0-1.942.777-3.799 2.202-5.137a7.087 7.087 0 0 1 5.224-1.986c17.01 2.03 33.631 6.26 49.648 12.434a147.375 147.375 0 0 0 44.425 10.75 153.278 153.278 0 0 0 45.331-10.88c17.873-7.167 36.697-11.44 55.952-12.736 19.168 1.21 38.035 5.526 55.865 12.736a153.167 153.167 0 0 0 45.763 10.75 143.495 143.495 0 0 0 45.159-10.923 174.88 174.88 0 0 1 55.908-13.254c19.514 1.037 38.683 5.397 56.772 12.823 14.204 6.044 29.357 9.67 44.727 10.793 15.283-1.08 30.307-4.706 44.338-10.793 18.435-7.555 38.035-11.916 57.894-12.823a167.7 167.7 0 0 1 55.952 12.823c14.247 6.173 29.4 9.843 44.9 10.793a137.875 137.875 0 0 0 45.978-9.67 168.515 168.515 0 0 1 55.909-12.823c19.255 1.08 38.165 5.44 55.952 12.822 14.333 6.088 29.573 9.757 45.158 10.793 16.924-.993 33.718-4.015 49.908-9.11 19.514-5.914 39.719-9.368 60.14-10.188v28.926a7.211 7.211 0 0 1-6.865 7.037c-14.938 1.554-29.746 4.533-44.166 8.764-19.125 5.871-38.898 9.325-58.887 10.232a172.002 172.002 0 0 1-57.074-12.866l.604-.56zm57.043-93.408a138.738 138.738 0 0 1-45.2-10.793 170.424 170.424 0 0 0-55.91-12.822c-19.254 1.036-38.164 5.396-55.951 12.822-14.376 6.174-29.66 9.8-45.288 10.793a134.868 134.868 0 0 1-44.9-10.793c-17.743-7.469-36.653-11.83-55.865-12.822-19.73.993-39.028 5.31-57.247 12.822-14.074 6.044-29.055 9.714-44.295 10.793-15.37-1.122-30.523-4.749-44.727-10.793-18.737-7.642-38.682-11.959-58.887-12.693-19.644 1.036-38.899 5.397-57.074 12.866a142.872 142.872 0 0 1-44.597 10.75 153.204 153.204 0 0 1-45.72-10.75 179.134 179.134 0 0 0-55.909-12.736c-19.212 1.295-38.078 5.569-55.908 12.736a153.6 153.6 0 0 1-45.332 10.88c-12.52-.778-24.78-3.541-36.48-8.074-1.857-.648-3.93-.346-5.483.777a5.924 5.924 0 0 0-2.461 4.965V696.1c-.086 2.633 1.64 5.05 4.144 5.871 12.995 4.533 26.552 7.08 40.28 7.512 19.471-1.166 38.64-5.483 56.772-12.693a153.881 153.881 0 0 1 44.727-10.922c15.197 1.338 30.135 4.965 44.209 10.793 18.305 7.34 37.646 11.613 57.333 12.736a174.342 174.342 0 0 0 55.909-12.866c14.506-6.087 29.875-9.8 45.59-10.922a142.594 142.594 0 0 1 44.9 10.75c17.787 7.425 36.653 11.743 55.908 12.865 19.255-1.08 38.121-5.396 55.908-12.865a140.539 140.539 0 0 1 45.332-10.75 135.297 135.297 0 0 1 44.467 10.75 167.367 167.367 0 0 0 57.031 12.865 171.13 171.13 0 0 0 57.334-12.865c14.03-6.001 28.969-9.671 44.165-10.75 15.327 1.122 30.394 4.749 44.511 10.75 18.133 7.555 37.43 11.872 57.031 12.865a189.2 189.2 0 0 0 45.288-6.692 6.18 6.18 0 0 0 4.62-5.871v-24.479c-.043-1.9-.907-3.67-2.418-4.835a6.278 6.278 0 0 0-5.31-1.036 176.237 176.237 0 0 1-40.496 7.123m49.916 131.859c-16.233 5.051-32.984 8.116-49.907 9.066-15.543-.95-30.74-4.576-45.03-10.62-17.787-7.383-36.74-11.743-55.951-12.823a168.515 168.515 0 0 0-55.909 12.823 138.13 138.13 0 0 1-45.33 10.793c-15.759-.907-31.215-4.533-45.677-10.793-17.83-7.426-36.74-11.83-55.952-12.823-19.644.95-39.028 5.31-57.204 12.823-14.074 6.044-29.055 9.67-44.338 10.793-15.37-1.123-30.523-4.75-44.727-10.793a174.056 174.056 0 0 0-58.197-12.995 174.519 174.519 0 0 0-55.908 12.995 142.031 142.031 0 0 1-44.597 10.793 152.08 152.08 0 0 1-46.152-10.793c-17.83-7.21-36.74-11.484-55.908-12.736-19.169 1.295-38.079 5.569-55.952 12.736a154.22 154.22 0 0 1-45.288 10.793c-12.477-.777-24.738-3.454-36.351-7.987a6.254 6.254 0 0 0-5.57.863c-1.64 1.166-2.547 3.022-2.547 5.008v24.609c0 2.676 1.77 5.094 4.36 5.871a134.994 134.994 0 0 0 40.108 7.426 184.714 184.714 0 0 0 56.772-12.736 154.947 154.947 0 0 1 44.77-10.75c15.153 1.295 30.048 4.965 44.165 10.75a182.668 182.668 0 0 0 57.29 12.736 174.334 174.334 0 0 0 55.952-12.866 142.619 142.619 0 0 1 44.856-10.75 139.734 139.734 0 0 1 44.9 10.75 172.083 172.083 0 0 0 55.952 12.866 169.396 169.396 0 0 0 55.908-12.866 140.539 140.539 0 0 1 45.331-10.75c15.283.993 30.35 4.62 44.425 10.75 18.132 7.599 37.43 11.916 57.074 12.866 19.73-.95 39.114-5.267 57.333-12.866 14.031-6.087 28.97-9.67 44.166-10.75a137.487 137.487 0 0 1 44.468 10.75c18.132 7.47 37.473 11.873 57.074 12.866 15.24-.432 30.437-2.677 45.158-6.735 2.763-.648 4.75-3.152 4.75-6.001v-32.164" fill-rule="evenodd"/></svg>