<svg viewBox="0 0 24 24"><g fill-rule="evenodd"><path d="M12.725 12.549l2.705 1.561c.48.277.646.888.367 1.371-.277.48-.896.642-1.37.368l-3.751-2.166.042-.072V9.376a1 1 0 0 1 1.004-1.003c.554 0 1.003.455 1.003 1.003v3.173z"/><path d="M14.252 4.122h-2.475C6.929 4.122 3 8.124 3 13.06S6.93 22 11.777 22c4.847 0 8.776-4.002 8.776-8.94H18.36c0 3.704-2.947 6.705-6.582 6.705-3.636 0-6.583-3.001-6.583-6.704s2.947-6.704 6.583-6.704H14.3l-.788.805a.802.802 0 0 0 .011 1.133.811.811 0 0 0 1.14-.003l2.49-2.47a.789.789 0 0 0 0-1.105l-2.491-2.48a.809.809 0 0 0-1.138-.004.803.803 0 0 0-.01 1.134l.738.755z" fill-rule="nonzero"/></g></svg>