<svg width="1024" height="1024" viewBox="0 0 1024 1024" xmlns="http://www.w3.org/2000/svg"><title>Settings_Legends</title><path d="M449.955 897.153h73.72V117.946h-73.72zM321.14 295.692c-6.292-1.671-12.73 1.474-15.334 7.126h-.099L88.532 678.636a72.79 72.79 0 0 0-8.896 20.1c-10.124 37.843 12.336 76.865 50.227 86.989 37.744 10.124 76.422-12.09 86.89-49.539h.05l52.192-194.913c.099-.245.148-.491.246-.737l60.99-227.447.295-1.13c1.867-7.077-2.26-14.35-9.387-16.267M159.69 320.314c2.506-6.094-.295-13.073-6.34-15.629-5.406-2.211-11.45-.245-14.596 4.473h-.05L10.533 474.09a38.804 38.804 0 0 0-6.389 10.468c-8.551 20.2.934 43.593 21.28 52.095 20.003 8.453 43.101-.836 51.8-20.69l82.025-194.717.442-.933zm488.721 463.691l15.137 112.888.098.786c.688 4.866 5.16 8.306 10.075 7.667 4.374-.59 7.569-4.227 7.716-8.453h.098l14.597-112.79 98.488 56.862v-.05a8.886 8.886 0 0 0 11.402-.982c3.49-3.49 3.49-9.19 0-12.729l-.59-.491-107.826-107.925V555.624l141.245 81.582 39.464 147.389.246.737c1.278 4.816 6.193 7.667 10.91 6.34 4.276-1.082 6.98-5.112 6.684-9.338v-113.92l105.32 43.346.737.295h-.049c4.57 1.868 9.83-.295 11.746-4.865 1.67-4.08.098-8.65-3.49-10.96h.05l-90.38-69.05 98.489-56.861-.05-.099c3.834-1.769 5.996-6.094 4.817-10.37-1.229-4.767-6.143-7.617-10.96-6.29l-.737.197L864.26 593.27l-141.245-81.582 141.245-81.582 147.388 39.513.737.196c4.817 1.278 9.731-1.572 10.96-6.34 1.18-4.226-.934-8.55-4.767-10.418l-98.489-56.911 90.38-69.001h-.05c3.588-2.359 5.16-6.979 3.49-10.96-1.917-4.62-7.175-6.782-11.697-4.914l-.737.295-105.32 43.346v-113.87a8.969 8.969 0 0 0-6.683-9.387c-4.718-1.278-9.633 1.572-10.91 6.34l-.247.687-39.464 147.438-141.245 81.582V304.587l107.826-107.924.59-.54c3.49-3.49 3.49-9.191 0-12.68-3.047-3.097-7.913-3.44-11.402-.983l-.05-.099-98.586 56.96-15.186-112.839-.049-.786c-.688-4.865-5.16-8.355-10.124-7.667-4.325.541-7.52 4.178-7.667 8.404l-.098.05-14.596 112.74" fill-rule="evenodd"/></svg>
