<svg width="1024" height="1024" viewBox="0 0 1024 1024" xmlns="http://www.w3.org/2000/svg"><title>Traffic_Callout_Location</title><path d="M512 109.971c-150.05 0-271.407 121.358-271.407 271.407C240.593 584.934 512 885.421 512 885.421s271.407-300.487 271.407-504.043c0-150.05-121.357-271.407-271.407-271.407zm0-58.159c182.17 0 329.566 147.397 329.566 329.566 0 55.86-16.131 117.275-45.498 183.925-25.019 56.785-59.155 116.194-100.153 176.958-30.718 45.53-63.53 89.24-96.35 129.678-11.502 14.172-22.203 26.946-31.841 38.133-5.871 6.815-10.147 11.655-12.564 14.332L512 972.188l-43.16-47.784c-2.417-2.677-6.693-7.517-12.564-14.332-9.638-11.187-20.339-23.96-31.841-38.133-32.82-40.439-65.632-84.149-96.35-129.678-40.998-60.764-75.134-120.173-100.153-176.958-29.367-66.65-45.498-128.066-45.498-183.925 0-182.17 147.396-329.566 329.566-329.566zm0 465.27c74.908 0 135.704-60.795 135.704-135.704 0-74.908-60.796-135.703-135.704-135.703-74.908 0-135.704 60.795-135.704 135.703 0 74.909 60.796 135.704 135.704 135.704zm0 58.159c-107.029 0-193.862-86.834-193.862-193.863 0-107.028 86.833-193.862 193.862-193.862s193.862 86.834 193.862 193.862c0 107.029-86.833 193.863-193.862 193.863z"/></svg>
