<svg width="1024" height="1025" viewBox="0 0 1024 1025" xmlns="http://www.w3.org/2000/svg"><title>X</title><path d="M1004.864 913.222c25.515 25.514 25.515 66.88 0 92.395-25.514 25.514-66.88 25.514-92.395 0L512.027 605.175l-400.5 400.446c-25.516 25.512-66.883 25.509-92.395-.008-25.512-25.516-25.509-66.883.007-92.395L419.632 512.78 19.136 112.284c-25.515-25.515-25.515-66.881 0-92.396 25.514-25.514 66.88-25.514 92.395 0l400.503 400.504L912.473 20.008c25.516-25.512 66.883-25.51 92.395.007 25.512 25.517 25.509 66.883-.007 92.396L604.43 512.787l400.434 400.435z"/></svg>
