<svg width="1024" height="1024" viewBox="0 0 1024 1024" xmlns="http://www.w3.org/2000/svg"><title>Minus</title><path d="M1009.79 478.8a48.288 48.288 0 0 0-9.279-7.52 47.957 47.957 0 0 0-15.193-6.141 48.15 48.15 0 0 0-8.468-1.034c-.543-.019-1.084-.04-1.63-.04l-207.81-.015 207.81.014c.545 0 1.087.022 1.627.041H44.925a47.789 47.789 0 0 0-17.595 4.554C11.17 476.37.002 492.853 0 511.952c0 1.76.102 3.495.285 5.207a47.61 47.61 0 0 0 .69 4.457c.273 1.34.614 2.654.997 3.95A47.744 47.744 0 0 0 6.94 536.82a48.155 48.155 0 0 0 6.35 8.272c7.206 7.535 16.85 12.723 27.662 14.305.54.08 1.084.15 1.63.21.102.011.203.019.306.029.992.104 1.993.183 3.005.225.148.005.297.005.447.01.408.014.816.029 1.228.032.127 0 .255.008.383.008l207.849.014-207.85-.014c-.127 0-.252-.007-.38-.008h930.257a47.804 47.804 0 0 0 2.287-.175 47.692 47.692 0 0 0 7.985-1.517 47.738 47.738 0 0 0 5.318-1.82c.2-.083.401-.16.601-.246 9.68-4.13 17.716-11.357 22.884-20.433a47.08 47.08 0 0 0 1.971-3.857c.371-.817.721-1.644 1.048-2.484a47.795 47.795 0 0 0 3.25-17.347c0-12.9-5.096-24.607-13.382-33.224" fill-rule="evenodd"/></svg>
