<svg width="1024" height="1024" viewBox="0 0 1024 1024" xmlns="http://www.w3.org/2000/svg" xmlns:xlink="http://www.w3.org/1999/xlink"><title>Plus</title><defs><path d="M464.596 47.886V463.62l-415.702-.028C22.409 463.59.937 485.059.935 511.545c-.003 26.484 21.466 47.956 47.951 47.959l415.71.028v415.677c0 26.485 21.471 47.957 47.957 47.957 26.484 0 47.955-21.472 47.955-47.957V559.54l415.638.027c26.485.002 47.957-21.466 47.96-47.951.002-26.486-21.466-47.958-47.952-47.96l-415.646-.027V47.886c0-26.485-21.471-47.955-47.955-47.955-26.486 0-47.957 21.47-47.957 47.955z" id="a"/></defs><use xlink:href="#a" fill-rule="evenodd"/></svg>
