<svg width="1024" height="1024" viewBox="0 0 1024 1024" xmlns="http://www.w3.org/2000/svg"><title>Alerts_Marine</title><path d="M21.77 823.347h975.22c8.192-.046 15.732 4.469 19.456 11.73 3.77 7.307 3.118 16.058-1.676 22.667L935.317 969.5a18.795 18.795 0 0 1-16.338 8.145h-809.1a41.043 41.043 0 0 1-33.745-17.454L3.99 857.605c-4.655-6.61-5.306-15.36-1.536-22.575 3.724-7.214 11.217-11.73 19.316-11.683m447.632-48.612H135.298c-5.073-.372-9.774-3.165-12.474-7.494a16.217 16.217 0 0 1-1.536-14.522l334.103-722.2c3.724-5.585 10.52-8.284 17.036-6.888 6.61 1.49 11.59 6.796 12.66 13.405v722.2c-.418 8.47-7.214 15.173-15.685 15.5m90.046-.001h324.143c5.772.233 11.124-2.746 14.01-7.726 2.84-4.934 2.653-11.125-.465-15.919L572.342 249.935c-3.678-5.678-10.706-8.332-17.222-6.377-6.517 1.909-10.985 7.913-10.985 14.709v501.108c0 8.518 6.842 15.36 15.313 15.36" fill-rule="evenodd"/></svg>