<svg width="1024" height="1024" viewBox="0 0 1024 1024" xmlns="http://www.w3.org/2000/svg"><title>Menu</title><path d="M123.126 634.54c67.472 0 122.143-54.672 122.143-122.144 0-67.423-54.671-122.144-122.143-122.144-67.423 0-122.144 54.72-122.144 122.144 0 67.472 54.72 122.143 122.144 122.143m387.135.001c67.472 0 122.144-54.672 122.144-122.144 0-67.423-54.672-122.144-122.144-122.144-67.472 0-122.143 54.72-122.143 122.144 0 67.472 54.671 122.143 122.143 122.143m390.859.001c67.472 0 122.143-54.672 122.143-122.144 0-67.423-54.671-122.144-122.143-122.144-67.472 0-122.143 54.72-122.143 122.144 0 67.472 54.671 122.143 122.143 122.143" fill-rule="evenodd"/></svg>