<svg width="1024" height="1024" viewBox="0 0 1024 1024" xmlns="http://www.w3.org/2000/svg"><title>Alerts_Other</title><path d="M859.283 976.012h-693.94c-70.345 0-122.584-25.173-149.004-70.022-26.42-44.803-20.277-103.001 14.642-163.231l347.154-600.361c34.92-60.6 82.54-94.41 134.317-94.41 51.732 0 99.445 33.348 134.317 94.41L993.6 742.758c34.919 60.554 39.907 118.429 14.18 163.232-25.82 44.85-79.121 70.022-148.497 70.022zm-276.67-212.006c0-36.074-29.238-65.311-65.265-65.311-36.073 0-65.264 29.237-65.264 65.31 0 36.028 29.19 65.265 65.264 65.265 36.027 0 65.265-29.237 65.265-65.264zm1.709-393.251c0-37.044-30.069-67.066-67.066-67.066-37.043 0-67.066 30.022-67.066 67.066l15.658 237.964c1.94 25.635 22.54 45.82 48.128 47.344 25.635 1.478 48.406-16.166 53.395-41.34.092-1.94.092-3.88 0-5.819l16.95-238.15z" fill-rule="evenodd"/></svg>