<svg viewBox="0 0 24 24"><path d="M12.973 12.508l2.715 1.567c.492.284.662.91.376 1.406a1.025 1.025 0 0 1-1.405.377l-3.727-2.151h-.018V9.4c0-.568.457-1.028 1.03-1.028.568 0 1.029.455 1.029 1.028v3.107zM9.46 4.122H12c4.97 0 9 4.002 9 8.939S16.97 22 12 22s-9-4.002-9-8.94h2.25c0 3.704 3.022 6.705 6.75 6.705s6.75-3.001 6.75-6.704S15.728 6.357 12 6.357H9.412l.808.805a.792.792 0 0 1-.011 1.133.843.843 0 0 1-1.169-.003l-2.553-2.47a.774.774 0 0 1 0-1.105l2.554-2.48a.84.84 0 0 1 1.18.009.793.793 0 0 1-.002 1.121l-.758.755z" /></svg>