<svg width="1024" height="1024" viewBox="0 0 1024 1024" xmlns="http://www.w3.org/2000/svg"><title>Overlays_Earthquake</title><path d="M564.867 69.384c-29.53-16.702-76.538-16.576-105.71-.126L0 327.928v511.377c0 71.08 53.986 127.806 120.57 127.806h207.8v-.177c.5 0 .953.127 1.453.127 13.24 0 26.458-5.61 36.197-16.703l174.32-198.254c9.549-10.865 14.312-25.495 13.121-40.302-1.167-14.782-8.192-28.351-19.337-37.372L426.27 587.255 587.776 385.74c17.718-22.11 15.217-55.286-5.62-74.086-20.837-18.8-52.105-16.121-69.823 5.963l-195.37 243.788c-8.81 10.991-12.978 25.344-11.525 39.696 1.452 14.327 8.406 27.416 19.241 36.159l105.901 85.583L308.248 862.02H120.546c-12.05 0-21.504-9.981-21.504-22.716V391.098l404.695-228.095c3.762-1.39 12.669-1.365 14.55-.885l406.67 229.94v447.474c0 12.407-9.882 22.489-22.027 22.489h-248v105.09h248c66.989 0 121.07-57.106 121.07-127.579V328.964L564.867 69.384z" fill-rule="evenodd"/></svg>