<svg width="1024" height="1024" viewBox="0 0 1024 1024" xmlns="http://www.w3.org/2000/svg"><title>Alerts_TornadoSevereStorms</title><path d="M364.489 930.608l187.294-27.188c26.372-3.788 50.683 15.008 54.423 41.908 3.74 26.804-14.577 51.69-40.95 55.479-4.459.719-9.158.671-13.473 0L364.489 973.81c-11.7-1.679-19.803-12.803-18.125-24.647 1.342-9.877 9.014-17.214 18.125-18.556m23.884-175.79l342.557-27.14c26.276-2.157 49.34 17.982 51.306 44.882 2.062 26.9-17.597 50.443-43.97 52.41-2.398.24-5.083.24-7.336 0L388.373 798.02c-11.652-.91-20.379-11.316-19.468-23.304.767-10.884 9.207-19.132 19.468-19.899M195.354 579.055l511.63-27.187c26.372-1.295 48.813 19.324 50.203 46.224 1.343 26.9-18.94 49.82-45.217 51.115-1.678.144-3.309.096-4.987 0l-511.629-26.948c-11.7-.768-20.666-10.837-20.091-22.873.575-11.076 9.35-19.803 20.091-20.33M20.225 402.191l594.296-27.14c26.277-1.247 48.573 19.708 49.772 46.512 1.15 26.804-19.228 49.676-45.6 50.827-1.343.048-2.83.048-4.172 0L20.225 445.394C8.574 444.771-.537 434.75.038 422.762c.48-11.269 9.35-20.14 20.187-20.571M72.952 226.43l727.597-27.188c26.324-.96 48.477 20.043 49.436 46.943.96 26.9-19.611 49.437-45.936 50.396a42.6 42.6 0 0 1-3.5 0L72.952 269.585c-11.652-.48-20.81-10.501-20.38-22.393.432-11.364 9.399-20.427 20.38-20.763m63.682-176.792l838.027-27.188c26.324-.815 48.334 20.283 49.197 47.231.815 26.9-19.852 49.293-46.128 50.108-.96.048-2.158.048-3.07 0L136.635 92.696c-11.7-.288-20.858-10.357-20.475-22.2.336-11.46 9.447-20.62 20.475-20.86" fill-rule="evenodd"/></svg>