<svg width="1024" height="1024" viewBox="0 0 1024 1024" xmlns="http://www.w3.org/2000/svg"><title>Traffic_Callout_Time</title><path d="M511.29 154.107c-197.28 0-357.183 160.124-357.183 357.604S314.01 869.315 511.29 869.315c197.745 0 358.025-160.17 358.025-357.604 0-197.435-160.28-357.604-358.025-357.604zm0-63.107c232.653 0 421.132 188.478 421.132 420.71 0 232.233-188.479 420.712-421.132 420.712C279.058 932.422 91 743.942 91 511.71S279.058 91 511.29 91z"/><path d="M532.746 301.355V522.23l189.32 112.33-.064.105.031.02c14.19 8.867 18.505 27.557 9.638 41.747-8.866 14.19-27.557 18.504-41.746 9.638a30.752 30.752 0 0 1-1.645-1.103L469.64 553.782V301.355c0-17.426 14.127-31.553 31.553-31.553 17.426 0 31.553 14.127 31.553 31.553z"/></svg>