<svg width="1024" height="1024" viewBox="0 0 1024 1024" xmlns="http://www.w3.org/2000/svg"><title>Navigation_Overlays</title><path d="M271.077 878.422c-17.586 0-33.192-7.951-43.92-20.277-8.959-10.277-14.566-23.54-14.566-38.21 0-14.669 5.607-27.932 14.565-38.209 10.729-12.325 26.335-20.276 43.921-20.276s33.193 7.95 43.921 20.276c8.958 10.277 14.565 23.54 14.565 38.21 0 14.669-5.607 27.932-14.565 38.21-10.728 12.325-26.335 20.276-43.92 20.276zm140.026-96.696c-16.839-61.61-73.155-107.077-140.026-107.077-66.87 0-123.187 45.466-140.026 107.077H0v76.42h131.068c16.822 61.593 73.138 107.076 140.01 107.076 66.87 0 123.186-45.483 140.008-107.077H1024v-76.419H411.103zM271.077 262.133c-17.586 0-33.192-7.95-43.92-20.276-8.959-10.277-14.566-23.54-14.566-38.21 0-14.669 5.607-27.932 14.565-38.21 10.729-12.325 26.335-20.276 43.921-20.276s33.193 7.951 43.921 20.277c8.958 10.277 14.565 23.54 14.565 38.21 0 14.669-5.607 27.932-14.565 38.209-10.728 12.326-26.335 20.276-43.92 20.276zm140.026-96.695C394.264 103.828 337.948 58.36 271.077 58.36c-66.87 0-123.187 45.466-140.026 107.077H0v76.419h131.068c16.822 61.593 73.138 107.077 140.01 107.077 66.87 0 123.186-45.484 140.008-107.077H1024v-76.42H411.103zm511.445 308.139C905.708 411.983 849.41 366.5 782.539 366.5c-66.87 0-123.187 45.483-140.026 107.077H0v76.419h642.513c16.84 61.61 73.155 107.077 140.026 107.077 66.871 0 123.17-45.466 140.009-107.077H1024v-76.42H922.548z" fill-rule="evenodd"/></svg>