<svg width="1024" height="1024" viewBox="0 0 1024 1024" xmlns="http://www.w3.org/2000/svg"><title>Alerts_Tropical</title><path d="M902.565 9.311C891.52-1.638 874.252-3.085 861.52 5.79L396.694 273.823c-6.8 3.135-12.926 6.8-19.583 10.321-77.703 46.063-126.66 128.59-129.795 218.931-3.087 90.293 39.937 176.052 114.313 227.42l-238.37 237.646-1.929 1.93c-11.383 11.672-12.058 30.049-1.592 42.493 10.37 12.54 28.555 15.097 42.108 6.03L627.008 750.56c6.85-3.136 12.927-6.801 19.535-10.322 77.848-46.111 126.709-128.687 129.796-219.076 3.087-90.39-40.082-176.148-114.603-227.468l238.9-237.79 1.93-1.93c12.154-12.203 12.154-31.93 0-44.133V9.31zM559.337 593.513c-44.182 26.19-101.242 11.672-127.432-32.51-26.24-44.133-11.721-101.193 32.412-127.432 44.134-26.239 101.194-11.72 127.481 32.365 25.998 44.23 11.48 101.145-32.461 127.577z" fill-rule="evenodd"/></svg>