<svg width="1024" height="1024" viewBox="0 0 1024 1024" xmlns="http://www.w3.org/2000/svg"><title>Overlays_Wildfire</title><g fill-rule="evenodd"><path d="M512.006 148.314C402.794 262.349 209.694 490.21 209.694 616.725c0 166.623 135.637 302.26 302.312 302.26 166.676 0 302.26-135.637 302.26-302.26 0-126.514-193.047-354.376-302.26-468.411m0 875.532c-224.506 0-407.172-182.667-407.172-407.12 0-211.819 332.564-543.44 370.524-580.56L512.006.25l36.65 35.915c37.959 37.12 370.47 368.741 370.47 580.56 0 224.453-182.666 407.12-407.12 407.12"/><path d="M693.336 790.044c0 100.141-81.214 181.356-181.356 181.356-100.194 0-181.356-81.215-181.356-181.356 0-100.194 181.356-277.67 181.356-277.67s181.356 177.476 181.356 277.67"/></g></svg>