<svg width="1024" height="1024" viewBox="0 0 1024 1024" xmlns="http://www.w3.org/2000/svg"><title>Alerts_Winter</title><path d="M761.728 618.057l-183.68-106.04 183.68-106.039 191.7 51.388c7.182 1.912 13.57-1.772 15.203-8.067 1.492-5.503-1.26-11.099-6.249-13.523l-128.05-73.958 117.511-89.765c4.664-2.984 6.669-9 4.524-14.222-2.518-6.016-9.28-8.814-15.202-6.389l-137.889 56.75v-148.1c.327-5.503-3.124-10.726-8.673-12.171-6.202-1.726-12.59 1.958-14.27 8.16l-51.62 192.727-183.68 106.04V242.722l140.313-140.36c5.27-5.223 5.27-12.59.7-17.16-4.058-4.057-10.353-4.43-14.83-1.352l-128.282 74.003-19.678-146.748C522.23 3.784 516.354-.74 510.012.1c-5.689.746-9.839 5.502-10.119 10.958L480.915 157.76 352.818 83.803c-4.57-3.031-10.818-2.658-14.922 1.399-4.476 4.57-4.476 11.937 0 16.507l141.107 141.013v212.126l-183.727-106.04-51.341-191.7c-1.959-7.229-8.3-10.913-14.55-9.187-5.502 1.445-9.046 6.668-8.626 12.17v148.101L83.803 251.815c-6.902-2.798-13.663 0-16.135 6.016-2.145 5.222-.186 11.238 4.524 14.222l117.417 89.765-128.05 73.958c-4.896 2.424-7.74 8.02-6.155 13.523 1.632 6.295 7.928 9.979 14.176 8.3l192.68-51.62 183.728 106.039-183.727 106.04-191.655-51.389c-7.181-1.865-13.57 1.82-15.202 8.021-1.585 5.502 1.26 11.145 6.156 13.523l128.05 74.004-117.465 89.765c-4.663 3.031-6.622 8.953-4.477 14.223 2.472 5.968 9.233 8.813 15.202 6.341l137.889-56.75v148.148c-.327 5.549 3.124 10.725 8.627 12.17a11.663 11.663 0 0 0 14.315-8.253l51.575-192.634 183.727-106.04v212.126L338.689 921.626c-5.27 5.27-5.27 12.684-.7 17.16 4.011 4.058 10.26 4.524 14.83 1.353L481.1 866.09l19.585 146.795c1.073 7.414 6.902 11.89 13.337 11.005 5.642-.746 9.746-5.456 10.025-10.959L543.12 866.23l128.049 73.957c4.523 3.124 10.818 2.658 14.875-1.4 4.57-4.476 4.57-11.89 0-16.413l-141.013-141.06V569.188l183.68 106.039 51.342 191.701c1.958 7.181 8.347 10.865 14.549 9.186 5.549-1.445 9-6.621 8.58-12.17l.093-148.148 136.91 56.377c6.854 2.845 13.663 0 16.18-5.968 2.146-5.27.14-11.192-4.523-14.176l-117.51-89.812 128.05-73.957c4.989-2.425 7.74-8.067 6.248-13.57-1.726-6.202-8.02-9.886-14.223-8.254l-192.68 51.621z" fill-rule="evenodd"/></svg>