<svg aria-hidden="true" viewBox="0 0 24 24"><path d="M7.896 2.691C8.175 2.231 8.546 2 8.92 2c.364 0 .73.219 1.014.658l4.985 7.688 2.173-2.904c.636-.85 1.579-.788 2.11.132l2.564 4.429c.532.92.126 1.664-.905 1.664H3.12c-1.026 0-1.423-.736-.873-1.643L7.896 2.69zM3.25 19.5h17.5c.691 0 1.251.555 1.251 1.25 0 .69-.556 1.25-1.25 1.25H3.25C2.561 22 2 21.445 2 20.75c0-.69.556-1.25 1.251-1.25zM2 16.583c0-.69.556-1.25 1.251-1.25H20.75c.691 0 1.251.555 1.251 1.25 0 .69-.556 1.25-1.25 1.25H3.25c-.69 0-1.251-.555-1.251-1.25z"/></svg>