<svg aria-hidden="true" viewBox="0 0 24 24"><g transform="translate(0 1)"><path d="M16.993 11.848c-.338 0-.612-.309-.612-.69 0-.38.274-.69.612-.69h5.247c.338 0 .612.31.612.69 0 .381-.274.69-.612.69h-5.247z"/><path d="M21.484 10.939l-1.988-2.325c-.248-.29-.197-.746.115-1.018.311-.273.765-.26 1.012.03L23 10.406c.224.26.207.662-.039.942l-2.617 2.987c-.273.312-.73.363-1.019.115-.29-.248-.303-.7-.03-1.012l2.19-2.5z"/><rect x="10.2" width="4" height="22" rx="2"/><g transform="translate(0 1)"><ellipse cx="6.053" cy="11.569" rx="1.25" ry="1.311"/><ellipse cx="2.002" cy="14.499" rx="1.25" ry="1.311"/><ellipse cx="6.158" cy="5.57" rx="1.25" ry="1.311"/><ellipse cx="2.124" cy="7.5" rx="1.25" ry="1.311"/><ellipse cx="2.229" cy="1.501" rx="1.25" ry="1.311"/><ellipse cx="5.949" cy="17.568" rx="1.25" ry="1.311"/></g></g></svg>