<svg aria-hidden="true" viewBox="0 0 24 25"><g transform="translate(0 1)"><path d="M4.56 18.18l8.668-11.23-.976 4.935 4.383-1.963-8.632 11.185L4.56 18.18zm-.214.279l3.443 2.926-.716.928a.218.218 0 0 1-.317.035l-3.093-2.63a.244.244 0 0 1-.033-.33l.716-.93zm9.24-11.564l.868.738 3.774-4.89 1.324 1.124-3.773 4.89.884.753a.232.232 0 0 1 .008.006l-3.95 1.76.865-4.381zm5.071-4.709l.573-.742a.11.11 0 0 1 .158-.017l1.15.977a.122.122 0 0 1 .016.165l-.573.743-1.324-1.126z"/><circle cx="13.06" cy="18.611" r="1.704"/></g></svg>