<svg aria-hidden="true" viewBox="0 0 24 25"><path d="M10.94 16.406v.323c.974.358 1.671 1.325 1.671 2.461 0 1.441-1.122 2.61-2.505 2.61-1.384 0-2.506-1.169-2.506-2.61 0-1.136.697-2.103 1.67-2.461v-.323a2.088 2.088 0 0 1-1.252-1.914V6.488a2.088 2.088 0 1 1 4.176 0v8.004c0 .856-.516 1.592-1.253 1.914zM10.15 5.9a.75.75 0 0 0-.75.75v5.33h1.5V6.65a.75.75 0 0 0-.75-.75zm6.998-.402h1.35a.75.75 0 0 1 0 1.5h-1.35v1.288a.75.75 0 0 1-1.5 0V6.998h-1.25a.75.75 0 1 1 0-1.5h1.25V4.186a.75.75 0 1 1 1.5 0v1.312z"/></svg>