<svg aria-hidden="true" viewBox="0 0 24 24"><g transform="translate(5.25 5.25)"><path d="M5.474 4.576A2.548 2.548 0 0 0 5.24 8.84c-.156.145-1.235 1.144-1.5 1.394-.12.114-.258.26-.12.474.049.075.05.09.12.15.11.094.304.094.455.017A669.57 669.57 0 0 1 7.721 9.14c.099-.04.194-.088.286-.14l.013-.007a2.548 2.548 0 0 0 .233-4.265 547.2 547.2 0 0 0 1.552-1.45c.083-.08.205-.238.08-.409a1.71 1.71 0 0 0-.103-.128c-.095-.11-.207-.174-.489-.043-.143.067-2.665 1.309-3.531 1.735a2.539 2.539 0 0 0-.29.143h.003zM6.75 13.5a6.75 6.75 0 1 1 0-13.5 6.75 6.75 0 0 1 0 13.5z"/><circle cx="6.746" cy="6.784" r="1"/></g></svg>