<svg aria-hidden="true" viewBox="0 0 24 24"><path d="M12.576 4.986l.001 2.446c0 .113.091.193.203.193h4.898a.996.996 0 0 1 1.008.999v12.612a1 1 0 0 1-.991 1.002H5.78a.996.996 0 0 1-.999-.992V8.627a.999.999 0 0 1 1-1.002h4.852c.116 0 .202-.086.202-.191l-.002-2.756-5.639-.994a.843.843 0 0 1-.68-.982.848.848 0 0 1 .975-.69L18.459 4.3a.843.843 0 0 1 .68.982.848.848 0 0 1-.976.69l-5.587-.985zm.002 4.687c0-.111.092-.201.2-.201h4.002c.11 0 .2.081.2.201v4.28a.202.202 0 0 1-.2.201h-4c-.11 0-.2-.081-.2-.201l-.003-4.28zm-6.092 0c0-.111.09-.201.21-.201h3.93c.116 0 .21.081.21.201l.002 4.282c0 .11-.09.201-.21.201H6.696c-.116 0-.21-.081-.21-.201V9.673z" fill-rule="evenodd"/></svg>