<svg aria-hidden="true" viewBox="0 0 24 24"><path d="M12 22.154C6.392 22.154 1.846 17.608 1.846 12S6.392 1.846 12 1.846 22.154 6.392 22.154 12 17.608 22.154 12 22.154zm3.159-3.058a.935.935 0 0 0 1.023.451 1.1 1.1 0 0 0 .203-.062 1.177 1.177 0 0 0 .487-.42c.072-.12.118-.25.137-.38a.923.923 0 0 0-.212-.738 1.081 1.081 0 0 0-.668-.368.964.964 0 0 0-.363.014.904.904 0 0 0-.336.145.842.842 0 0 0-.14.124.856.856 0 0 0-.112.142.988.988 0 0 0-.135.341c-.05.243-.022.511.116.751zm-4.084.216c0 .276.113.524.31.7.098.088.216.16.347.204.131.041.276.059.425.047a.965.965 0 0 0 .41-.122.944.944 0 0 0 .493-1.005 1.065 1.065 0 0 0-.392-.651.981.981 0 0 0-.32-.176 1.032 1.032 0 0 0-.362-.04.85.85 0 0 0-.35.105.983.983 0 0 0-.287.223 1.086 1.086 0 0 0-.274.715zm-3.68-1.757a.943.943 0 0 0-.084.766c.042.124.111.241.203.346a.994.994 0 0 0 .345.256c.136.062.278.096.416.103a1.01 1.01 0 0 0 .397-.072.919.919 0 0 0 .531-.55 1.085 1.085 0 0 0-.015-.764 1.003 1.003 0 0 0-.193-.307.855.855 0 0 0-.293-.22 1.005 1.005 0 0 0-.354-.086 1.007 1.007 0 0 0-.363.054 1.054 1.054 0 0 0-.59.474zm-2.43-2.532a.935.935 0 0 0-.45 1.023c.013.069.034.137.061.204a1.16 1.16 0 0 0 .42.486c.121.072.25.118.38.138.26.04.527-.035.739-.213.21-.177.329-.42.367-.667a.961.961 0 0 0-.014-.364.848.848 0 0 0-.27-.475.851.851 0 0 0-.14-.113.987.987 0 0 0-.342-.134 1.065 1.065 0 0 0-.75.115zM4.75 10.94a.927.927 0 0 0-.7.31c-.088.098-.16.216-.205.347a1.132 1.132 0 0 0-.047.425c.01.15.055.289.123.41.066.122.154.227.255.309a.944.944 0 0 0 .75.184c.273-.048.497-.198.65-.391a.981.981 0 0 0 .176-.32c.035-.116.048-.237.041-.363a.85.85 0 0 0-.106-.35.98.98 0 0 0-.222-.286 1.086 1.086 0 0 0-.715-.275zm1.757-3.68a.943.943 0 0 0-.767-.084 1.007 1.007 0 0 0-.345.204.996.996 0 0 0-.257.344 1.143 1.143 0 0 0-.102.417 1.01 1.01 0 0 0 .07.397c.099.245.29.436.551.53.258.094.534.077.764-.014a1 1 0 0 0 .308-.194.853.853 0 0 0 .219-.293.993.993 0 0 0 .086-.354 1.006 1.006 0 0 0-.054-.362 1.055 1.055 0 0 0-.473-.591zm1.351-1.453c1.61 3.225 2.612 5.14 3.038 5.801.604.937 1.029 1.341 2.124 2.113.607.427 2.43 1.529 5.513 3.332a.75.75 0 0 0 .757-1.295c-3.033-1.774-4.85-2.872-5.406-3.263-.95-.67-1.242-.948-1.727-1.7-.383-.593-1.379-2.497-2.957-5.658a.75.75 0 0 0-1.342.67z"/></svg>