<svg xmlns="http://www.w3.org/2000/svg" width="1024" height="1024" viewBox="0 0 1024 1024"><path d="M1003.236 198.792c3.288-12.492-4.152-25.18-16.52-28.626-11.276-3.004-22.46 2.652-27.124 12.652l-.034-.034-204.96 354.77a78.334 78.334 0 0 0-9.648 22.142c-11.344 41.564 13.324 84.572 55.114 95.688 41.244 10.956 83.582-13.29 95.368-54.216l107.156-400.452.648-1.924zm-367.582 335.28c3.288-12.368-4.118-25.02-16.486-28.626-11.026-3.004-22.46 2.652-27.124 12.686l-.126-.034L386.992 872.96c-4.312 6.804-7.544 13.96-9.774 22.142-11.116 41.564 13.608 84.344 55.274 95.596 41.154 10.99 83.548-13.198 95.334-54.124h.034l107.156-400.612.638-1.89zm-69.04-210.58l-119.49-15.622 60.348-104.254c2.492-3.71 2.208-8.692-1.116-12.14-3.8-3.676-9.808-3.676-13.324 0l-.638.638-114.472 114.312-58.89-.056v-58.948l114.86-115.018c3.71-3.55 3.71-9.648 0-13.324-3.198-3.356-8.374-3.676-12.106-1.15l-104.664 60.416-15.974-119.682-.126-.83c-.706-5.176-5.462-8.784-10.672-8.18-4.63.638-8.022 4.472-8.272 8.978h-.034L266.616 178.28l-104.324-60.508-.034.09c-3.516-2.492-8.658-2.23-12.106 1.184-3.55 3.71-3.55 9.774 0 13.324L265.17 247.388v58.948h-59.028L91.204 191.476c-3.71-3.71-9.774-3.71-13.482 0-3.288 3.356-3.676 8.374-1.024 12.106v-.056L137.08 308.1 16.532 324.142c-5.108.706-8.692 5.496-8.022 10.672.672 4.63 4.506 8.112 9.012 8.272v.034l119.49 15.462-60.314 104.436.034.034c-2.652 3.676-2.208 8.658 1.024 11.946 3.71 3.868 9.774 3.868 13.448 0l.512-.478 114.472-114.472h59.074v59.108L150.278 534.048c-3.64 3.834-3.64 9.842 0 13.482 3.322 3.198 8.5 3.516 12.014 1.15h.034l104.54-60.416 16.008 119.682.126.706c.706 5.336 5.462 8.852 10.672 8.306 4.63-.796 8.022-4.506 8.272-8.978l-.034.116 15.428-119.648 104.504 60.29c3.71 2.366 8.852 2.048 12.106-1.15 3.71-3.55 3.71-9.648 0-13.482l-.638-.478-114.222-114.472v-59.108h58.914L492.474 474.52l.638.478c3.516 3.868 9.614 3.868 13.324 0 3.356-3.198 3.64-8.272 1.116-11.98h.034l-60.45-104.574L567.65 342.31c5.142-.672 8.942-5.462 8.022-10.672-.594-4.538-4.554-8.02-9.058-8.146z"/></svg>
