<svg xmlns="http://www.w3.org/2000/svg" width="1024" height="1024" viewBox="0 0 1024 1024"><path d="M424.755 39.731c3.891-12.902-4.71-26.214-19.251-29.696-12.902-3.072-26.01 2.662-31.744 13.107L134.758 392.396c-4.915 6.963-8.806 14.541-11.469 22.938-13.107 43.418 15.77 88.064 64.512 99.533 48.128 11.469 97.485-13.722 111.206-56.32L424.754 39.731zm463.667-29.696c-14.336-3.482-29.082 3.072-35.226 14.541h-.205l-497.254 767.59c-8.806 12.288-15.77 26.01-20.275 40.96-23.347 77.414 28.262 156.877 115.098 177.766 86.221 20.48 174.899-24.576 198.861-101.171h.205l119.603-397.926c.205-.41.41-1.024.614-1.434L909.517 45.67l.614-2.253c3.891-14.541-5.53-29.491-21.709-33.382z"/></svg>
