<svg xmlns="http://www.w3.org/2000/svg" width="1024" height="1024" viewBox="0 0 1024 1024"><path d="M944.128 565.248h-1.024l-187.392 50.176L576.512 512l179.712-103.424 187.392 50.176h1.024c6.144 1.536 12.288-2.048 13.824-8.192 1.536-5.632-1.024-10.752-6.144-13.312l-124.928-72.192 114.688-87.552c4.608-3.072 6.656-8.704 4.608-13.824-2.56-5.632-9.216-8.704-14.848-6.144l-1.024.512-133.632 55.296V167.936c.512-5.12-3.072-10.24-8.192-11.776-6.144-1.536-12.288 2.048-13.824 8.192v1.024l-50.176 187.392L545.28 456.192v-207.36l137.728-137.728c4.608-4.608 4.608-11.776 0-15.872-4.096-4.096-10.24-4.608-14.336-1.536l-125.44 72.192-19.456-143.36v-1.024c-1.024-6.144-6.656-10.752-12.8-9.728-5.632.512-9.728 5.12-9.728 10.752l-18.432 143.36-126.464-72.192c-4.608-3.072-10.752-2.56-14.336 1.536-4.608 4.608-4.608 11.776 0 15.872l137.728 137.728v207.36L300.032 352.256l-50.176-187.392v-1.024c-1.536-6.144-7.68-9.728-13.824-8.192-5.12 1.536-8.704 6.656-8.192 11.776V312.32L92.672 257.024c-5.632-2.56-12.288.512-14.848 6.144-2.048 5.12 0 10.752 4.608 13.824l114.688 87.552L71.68 437.76c-5.12 2.048-7.68 7.68-6.144 13.312 1.536 6.144 7.68 9.728 13.824 8.192l1.024-.512 187.392-50.176L447.488 512 267.776 615.424 80.384 565.248H79.36c-6.144-1.536-12.288 2.048-13.824 8.192-1.536 5.632 1.024 10.752 6.144 13.312l124.928 72.192L81.92 746.496c-4.608 3.072-6.656 8.704-4.608 13.824 2.56 5.632 9.216 8.704 14.848 6.144l1.024-.512 133.632-55.296v144.896c-.512 5.632 3.072 10.24 8.192 11.776 6.144 1.536 12.288-2.048 13.824-8.192l.512-1.024L299.52 670.72l179.712-103.424v207.36L341.504 912.384c-4.608 4.608-4.608 11.776 0 15.872 4.096 4.096 10.24 4.608 14.336 1.536L481.28 857.6l19.456 143.36v1.024c1.024 6.144 6.656 10.752 12.8 9.728 5.632-.512 9.728-5.12 9.728-10.752l18.432-143.36 124.928 72.192c4.608 3.072 10.752 2.56 14.336-1.536 4.608-4.608 4.608-11.776 0-15.872L543.232 774.656v-207.36L722.944 670.72l50.176 187.392v1.024c1.536 6.144 7.68 9.728 13.824 8.192 5.632-1.536 8.704-6.656 8.192-11.776V710.656l134.656 55.808c5.632 2.56 12.288-.512 14.848-6.144 2.048-5.12 0-10.752-4.608-13.824l-114.688-87.552 124.928-72.192c5.12-2.56 7.68-7.68 6.144-13.312 0-6.144-6.144-9.728-12.288-8.192z"/></svg>
