<svg aria-hidden="true" viewBox="0 0 24 24"><g transform="translate(3 1)"><ellipse cx="7.502" cy="1.193" rx="1" ry="1"/><circle cx="7.802" cy="2.393" r="1"/><ellipse cx="7.802" cy="3.293" rx="1.5" ry="1.2"/><ellipse cx="8.102" cy="4.793" rx="1.2" ry="1"/><circle cx="7.802" cy="6.593" r="1.5"/><circle cx="8.102" cy="7.493" r="1.2"/><circle cx="8.402" cy="9.593" r="1.5"/><ellipse cx="8.102" cy="11.393" rx="1.2" ry="1.5"/><ellipse cx="8.102" cy="13.193" rx="1.8" ry="1.5"/><ellipse cx="8.102" cy="14.993" rx="1.2" ry="1.5"/><ellipse cx="8.402" cy="16.493" rx="1" ry="1.2"/><ellipse cx="8.102" cy="17.393" rx="1" ry="1"/><path d="M10.863 17.616c.125.134.283.247.467.325.64.272 1.36.023 1.605-.556a1.07 1.07 0 0 0 .032-.737 1.042 1.042 0 0 0 .349-.842c.495-.016.889-.204 1.033-.542.143-.339.005-.753-.327-1.12a1.043 1.043 0 0 0 .363-.797c.476-.019.875-.231 1.032-.599.15-.353.04-.767-.248-1.114a.674.674 0 0 0 .164-.387c.45-.033.824-.242.973-.595a.924.924 0 0 0 .009-.672c.203-.175.246-.57.122-1.008.614.223 1.24.062 1.428-.38.093-.22.062-.469-.066-.7.237-.035.43-.156.511-.348a.512.512 0 0 0 .04-.206.732.732 0 0 0 .138-.214c.148-.347.008-.739-.313-.875-.263-.111-.565-.016-.747.213-.384-.067-.739.063-.858.343a.535.535 0 0 0-.026.327c-.455-.037-.855.137-.999.475a.67.67 0 0 0-.045.16.468.468 0 0 0-.372.002c-.28.136-.347.594-.193 1.1-.679-.153-1.32.06-1.529.552a.918.918 0 0 0-.015.65.754.754 0 0 0-.43.398.754.754 0 0 0 .012.586.918.918 0 0 0-.457.462.935.935 0 0 0 .005.708c-.238.111-.432.3-.539.55-.064.152-.09.311-.08.469-.495.016-.89.204-1.034.542-.143.339-.005.753.328 1.12a1.043 1.043 0 0 0-.313 1.122 1 1 0 0 0-.205.247c-.306-.061-.67.196-.85.619-.196.463-.096.949.224 1.085.263.111.592-.047.81-.363zm-4.915-1.062c.112.156.216.34.305.544a.785.785 0 0 1 .244.886c.054.481-.048.859-.294.953-.2.077-.451-.047-.69-.304-.348-.012-.662-.208-.784-.527a.805.805 0 0 1 .016-.608.83.83 0 0 1-.612-.505.782.782 0 0 1-.049-.354c-.37-.025-.661-.176-.76-.434-.099-.257.016-.564.275-.83a.782.782 0 0 1-.252-.608c-.356-.026-.65-.196-.757-.475-.103-.269-.011-.577.215-.83a.506.506 0 0 1-.113-.293c-.337-.037-.612-.204-.715-.472a.693.693 0 0 1 .012-.504c-.148-.136-.17-.434-.065-.758-.466.15-.932.014-1.061-.323a.592.592 0 0 1 .068-.522c-.177-.033-.318-.129-.374-.275a.384.384 0 0 1-.025-.156.55.55 0 0 1-.098-.163c-.101-.264.014-.554.258-.648a.48.48 0 0 1 .554.18c.29-.04.553.066.635.279a.4.4 0 0 1 .01.245c.343-.015.638.126.737.383.015.04.025.08.03.121a.35.35 0 0 1 .278.01c.206.11.245.455.116.831.513-.097.988.08 1.132.453a.689.689 0 0 1-.006.488c.146.064.258.17.312.31a.566.566 0 0 1-.025.438.683.683 0 0 1 .33.359.701.701 0 0 1-.022.53.8.8 0 0 1 .39.427c.044.115.06.235.048.353.37.025.662.176.76.434.1.258-.016.564-.274.83a.782.782 0 0 1 .251.535z"/><path d="M8.38 15.67c.096.618.001 2.271-.284 4.962m-1.979-2.57c.604 1.037 1.305 1.9 2.104 2.587m2.825-3.419a37.97 37.97 0 0 1-2.595 3.48" stroke="currentColor" stroke-width="1.5" stroke-linecap="round"/></g></svg>