<svg aria-hidden="true" viewBox="0 0 24 24"><path d="M12.06 5v-.75c.499 0 .962.221 1.292.607.123.144.225.26.488.561 3.121 3.574 4.528 5.715 4.528 8.13 0 3.406-2.833 6.169-6.307 6.169-3.476 0-6.31-2.762-6.311-6.169A5.9 5.9 0 0 1 6 11.896c.434-1.488 1.365-2.994 2.772-4.72.407-.5.736-.882 1.41-1.65.303-.345.437-.498.583-.668.33-.387.795-.608 1.294-.608V5zm0 0v.75c-.054 0-.105.024-.155.083a65.9 65.9 0 0 1-.596.683 51.446 51.446 0 0 0-1.374 1.607c-1.29 1.584-2.13 2.941-2.494 4.192a4.396 4.396 0 0 0-.191 1.233c0 2.57 2.155 4.669 4.811 4.669 2.654 0 4.807-2.1 4.807-4.669 0-1.888-1.313-3.886-4.158-7.143a82.852 82.852 0 0 1-.497-.572c-.05-.059-.1-.083-.154-.083V5z"/><path d="M7 11.25h11v1.5H7z"/></svg>