<svg aria-hidden="true" viewBox="0 0 24 24"><path d="M20.4 12.838l-3.59.957-3.163-1.83 3.163-1.811 3.607.974c.222.052.461-.085.512-.29a.424.424 0 0 0-.205-.479l-2.222-1.265 2.017-1.538a.43.43 0 0 0 .137-.496.432.432 0 0 0-.393-.257c-.051 0-.103.017-.171.034l-2.36.975v-2.53a.428.428 0 0 0-.307-.445c-.222-.05-.461.069-.513.308l-.957 3.59-3.162 1.829V6.923l2.65-2.65a.413.413 0 0 0 0-.581.443.443 0 0 0-.514-.068l-2.222 1.282-.342-2.547a.421.421 0 0 0-.41-.359c-.24.017-.393.171-.41.359l-.325 2.53-2.205-1.265a.466.466 0 0 0-.53.068c-.154.154-.154.428.017.598l2.632 2.633v3.641L7.972 8.735l-.974-3.607c-.069-.222-.291-.359-.513-.29a.42.42 0 0 0-.308.41v2.564l-2.359-.975a.429.429 0 0 0-.547.223.43.43 0 0 0 .137.496l2.034 1.538-2.205 1.265c-.188.103-.273.29-.222.479a.42.42 0 0 0 .41.307c.034 0 .068 0 .12-.017l3.59-.957 3.162 1.812-3.111 1.829-3.607-.974c-.222-.052-.462.085-.513.29a.425.425 0 0 0 .205.479l2.222 1.265-2.017 1.538a.414.414 0 0 0-.154.496.432.432 0 0 0 .394.256c.05 0 .102-.017.17-.034l2.36-.974V18.7c0 .188.12.359.307.41a.404.404 0 0 0 .513-.308l.957-3.59 3.163-1.811v3.658l-2.65 2.65a.4.4 0 0 0-.12.29c0 .102.052.222.12.29a.442.442 0 0 0 .513.069l2.205-1.265.342 2.547a.421.421 0 0 0 .41.359c.24-.034.394-.171.41-.359l.325-2.53 2.205 1.265c.171.086.394.068.53-.068.171-.154.171-.428-.017-.616l-2.65-2.632v-3.641l3.163 1.812.975 3.607c.05.222.29.359.512.29a.42.42 0 0 0 .308-.41V16.17l2.376.974a.495.495 0 0 0 .154.035.432.432 0 0 0 .393-.257.43.43 0 0 0-.137-.496L18.52 14.89l2.205-1.265a.415.415 0 0 0 .205-.479.436.436 0 0 0-.41-.325c-.034 0-.068 0-.12.018z"/></svg>