<svg aria-hidden="true" viewBox="0 0 24 24"><path d="M12 18.75a6.75 6.75 0 1 1 0-13.5 6.75 6.75 0 0 1 0 13.5zm3.853-6.28l-1.646.438-1.45-.839 1.45-.83 1.654.446c.102.024.211-.039.235-.133a.194.194 0 0 0-.094-.22l-1.02-.58.926-.705a.197.197 0 0 0 .062-.227.198.198 0 0 0-.18-.118c-.023 0-.047.008-.078.016l-1.082.447v-1.16a.196.196 0 0 0-.14-.204c-.103-.023-.213.031-.236.141l-.439 1.646-1.45.839v-1.67l1.215-1.215a.19.19 0 0 0 0-.266.203.203 0 0 0-.235-.031l-1.02.587-.156-1.167a.193.193 0 0 0-.188-.165c-.11.008-.18.078-.188.165l-.15 1.16-1.01-.58a.213.213 0 0 0-.243.03.198.198 0 0 0 .008.275l1.207 1.207v1.67l-1.45-.839-.447-1.654c-.031-.102-.133-.164-.235-.133a.193.193 0 0 0-.141.188v1.176L8.25 9.718A.197.197 0 0 0 8 9.82a.197.197 0 0 0 .062.227l.933.706-1.011.58c-.087.047-.126.133-.102.22a.193.193 0 0 0 .188.14c.016 0 .031 0 .055-.008l1.646-.439 1.45.831-1.427.839-1.654-.447c-.101-.023-.211.04-.235.133a.195.195 0 0 0 .094.22l1.02.58-.926.705a.19.19 0 0 0-.07.228c.031.07.102.117.18.117.024 0 .047-.008.078-.016l1.082-.446v1.167c0 .087.055.165.141.188a.185.185 0 0 0 .235-.14l.44-1.646 1.45-.831v1.677l-1.216 1.215a.183.183 0 0 0-.054.133c0 .047.023.102.054.133.063.063.165.07.235.032l1.012-.58.156 1.168a.193.193 0 0 0 .188.164c.11-.016.18-.078.189-.164l.148-1.16 1.011.58c.079.039.18.03.244-.032.078-.07.078-.196-.008-.282l-1.215-1.207v-1.67l1.45.831.447 1.654a.186.186 0 0 0 .235.133.193.193 0 0 0 .14-.188v-1.168l1.09.447a.227.227 0 0 0 .07.016.198.198 0 0 0 .181-.118.197.197 0 0 0-.063-.227l-.932-.705 1.01-.58a.19.19 0 0 0 .095-.22.2.2 0 0 0-.188-.149c-.016 0-.032 0-.055.008z"/></svg>