<svg aria-hidden="true" viewBox="0 0 24 24"><path d="M13.05 10.65H8.954c-.12 0-.22.062-.25.146L6.82 16.162a.155.155 0 0 0-.021.078c0 .111.116.2.26.2h1.774L7.15 21.244a.333.333 0 0 0-.018.102c0 .211.223.382.499.382a.54.54 0 0 0 .43-.191s5.49-7.22 5.49-7.249c0-.11-.047-.239-.191-.239l-1.669-.048s1.43-2.889 1.527-3.078c.089-.152-.023-.273-.167-.273z"/><path d="M17.745 6.54l-.355.096a4.911 4.911 0 0 0-9.599.546l-.129-.034a2.804 2.804 0 0 0-3.486 3.032l-1.203.323a1.312 1.312 0 0 0 .42 2.576H6.45c.106 0 1.05-3.079 1.212-3.375.13-.204.178-.204.277-.204h6.92c.345 0 .349.12.3.25-.8 1.75-.8 1.803-1.349 2.923-.109.221-.234.406.05.406h4.636s.626-.029.94-.113a3.322 3.322 0 0 0-1.69-6.426z"/></svg>