<svg aria-hidden="true" viewBox="0 0 24 24"><path d="M9.828 16.608l6.021-.468a.839.839 0 0 1 .903.773.839.839 0 0 1-.903.903l-6.021-.465a.373.373 0 0 1 0-.743zm-3.394-3.026l8.995-.468a.84.84 0 0 1 .882.796.837.837 0 0 1-.882.88l-8.995-.464a.372.372 0 1 1 0-.744zm-3.078-3.044l10.447-.468a.839.839 0 1 1 0 1.676L3.356 11.28a.371.371 0 1 1 0-.744zm.926-3.026l12.792-.468a.84.84 0 1 1 0 1.676L4.282 8.254a.372.372 0 0 1 0-.742zm1.12-3.043L20.135 4a.84.84 0 1 1 0 1.676L5.402 5.21a.371.371 0 0 1 0-.741zm4.006 15.165l3.293-.468a.848.848 0 0 1 .237 1.676.781.781 0 0 1-.237 0l-3.293-.465a.375.375 0 0 1 0-.743z"/></svg>