<svg aria-hidden="true" viewBox="0 0 24 24"><path d="M12 18.75a6.75 6.75 0 1 1 0-13.5 6.75 6.75 0 0 1 0 13.5zm-.996-4.627c-.082.007-.15.087-.157.191-.007.115.063.215.157.224l2.76.259a.3.3 0 0 0 .06 0c.212-.02.37-.245.354-.503-.016-.259-.201-.452-.414-.432l-2.76.261zM9.45 12.737c-.086.005-.157.089-.162.195-.004.116.068.213.162.22l4.123.26a.26.26 0 0 0 .04 0c.212-.013.375-.233.364-.492-.011-.259-.192-.457-.404-.445l-4.123.262zM8.038 11.34c-.087.005-.159.09-.163.198-.004.115.069.212.163.218l4.788.26h.035c.212-.011.376-.231.366-.49-.009-.257-.188-.459-.4-.447l-4.789.261zm.425-1.386c-.089.003-.161.09-.164.2-.004.114.07.21.164.215l5.862.26h.029c.212-.01.378-.227.37-.485-.008-.26-.186-.461-.399-.452l-5.862.262zm.513-1.395c-.089.002-.162.09-.165.2-.003.114.07.211.165.214l6.752.261h.025c.212-.008.378-.224.372-.482-.007-.26-.184-.463-.397-.455l-6.752.262zm1.836 6.949c-.074.013-.135.082-.146.176-.014.113.052.22.146.235l1.51.258a.297.297 0 0 0 .108 0c.212-.037.36-.274.33-.529-.03-.256-.226-.436-.439-.4l-1.51.26z"/></svg>