<svg aria-hidden="true" viewBox="0 0 24 24"><g><path d="M19.098 2c.208.07.429.115.62.215.535.278.828.952.694 1.534a1.45 1.45 0 0 1-1.357 1.139c-.647.023-1.236-.38-1.425-.977-.28-.88.256-1.742 1.167-1.88.033-.004.064-.02.096-.031h.205z"/><g transform="translate(2 7.556)"><path d="M0 5.08l.737-1.227L8.9 8.493l2.951-2.949-.202-.111c-1.304-.7-2.606-1.4-3.912-2.097-1.059-.565-1.265-1.937-.586-2.83.117-.155.227-.315.347-.482.061.04.11.069.157.102l6.092 4.396c.514.37.562.937.112 1.388a1394.206 1394.206 0 0 1-3.254 3.25c-.055.054-.124.095-.216.164.105.067.161.107.22.14 1.899 1.08 3.782 2.187 5.702 3.227 1.115.604 2.32.812 3.572.402.016-.005.035 0 .076 0a2.99 2.99 0 0 1-1.153.994c-1.058.534-2.133.446-3.117-.106C10.512 11.073 5.354 8.128.19 5.196.132 5.164.08 5.129 0 5.08"/></g><path d="M4.667 5.031c.203-.317.39-.627.595-.922.103-.147.108-.244-.019-.378a4.408 4.408 0 0 1-.55-.718c.26.106.52.206.776.322.115.052.18.031.25-.08.176-.275.364-.542.545-.81.404.236.59.661.508 1.216-.028.198.025.291.177.389a386.38 386.38 0 0 1 3.387 2.19c.126.083.209.09.333-.012.806-.66 1.696-1.136 2.698-1.327.856-.163 1.712-.175 2.533.191.666.297.929.86.849 1.632-.093.898-.148 1.801-.223 2.702-.012.146.037.236.147.324.914.732 1.825 1.47 2.734 2.209.426.346.491.899.163 1.31a.74.74 0 0 1-.903.212 1.584 1.584 0 0 1-.278-.179c-1.014-.817-2.023-1.642-3.04-2.454-.298-.237-.438-.536-.434-.93.005-.425.002-.85 0-1.276 0-.073-.006-.146-.012-.254L13.169 9.57c-2.244-1.59-4.462-3.155-6.675-4.731-.172-.122-.285-.132-.44.017-.408.395-.868.443-1.387.175"/></g></svg>