<svg aria-hidden="true" viewBox="0 0 24 24"><path d="M10.413 18.699c.3-1.209.504-2.121.504-3.195 0-1.075-.728-1.572-1.437-2.055-.71-.484-4.896.76-6.521-.93-.782-.813-1.705-2.976.708-4.269.743-.398 1.433-.232 1.705-.59.354-.467-.437-.937 0-2.212C5.977 3.68 7.05 2.47 8.959 2.125c1.805-.326 4.55.01 6.11.727 1.54.708 1.339.98 1.933 1.471.4.332.525.548 1.607.762 1.062.21 1.89.218 2.808 1.287.946 1.1.831 3.215.237 4.29-.595 1.077-2.124 1.392-2.827 2.004-1.633 1.422-4.002-.626-4.517.783-.574 1.268-.743 2.246-.17 4.922.347 1.908 2.017 2.625 1.71 3.137-.308.512-1.71 0-2.595.32-1.283.456-1.534-.119-2.338-.32-.804-.2-2.189.674-2.189 0s1.385-1.601 1.685-2.81zm-1.13-6.92c0 .546 1.538 1.197 1.914.965.377-.231.022-1.388-.25-2.438-.273-1.051-1.664.898-1.664 1.473zm6.779-1.663c.603-.87.712-1.35 0-1.35-2.553.67-2.933 2.792-2.433 2.792s1.88-.645 2.433-1.442zM14.364 7.95c.449-.477.438-.594 0-.96-.439-.367-.925.162-.925.638 0 .477.476.8.925.322z"/></svg>