<svg aria-hidden="true" viewBox="0 0 24 24"><path d="M7.25 2.5h9.391a4 4 0 0 1 4 4v11.13a4 4 0 0 1-4 4H7.25a4 4 0 0 1-4-4V6.5a4 4 0 0 1 4-4zm10.348 4.348a1.304 1.304 0 1 0 0-2.609 1.304 1.304 0 0 0 0 2.609zm-5 13.913a6.957 6.957 0 1 0 0-13.913 6.957 6.957 0 0 0 0 13.913z"/><path d="M17.163 21.196c-.771.206-10.858-.284-10.993-.785-.136-.51.075-.744.68-1.03.133-.063 2.092.05 2.065 0-.882-1.664-.882-2.873-.448-4.707.515-2.173 2.216-3.676 4.22-4.213.821-.22 1.518-.123 1.91.208.415.35.334.879-.205 1.023-1.136.305-2.203 1.871-1.704 3.733.257.96.813 1.858 2.99 1.858 2.39 0 4.605-3.986 2.39-7.573-.37-.602 3.331.959 2.392.959-.243 0-.243 7.713-1.123 7.918l-2.174 2.609z"/></svg>