<svg fill="var(--color-tornado)" viewBox="0 0 200 200" ><path d="M71.5 179.3l36.2-5.1c5.1-.7 9.8 2.8 10.5 7.9.7 5.1-2.8 9.8-7.9 10.5-.9.1-1.8.1-2.6 0l-36.2-5.1c-2.3-.3-3.8-2.4-3.5-4.7.2-1.9 1.7-3.3 3.5-3.5zM76.1 146l66.2-5.1c5.1-.4 9.5 3.4 9.9 8.5.4 5.1-3.4 9.5-8.5 9.9h-1.4l-66.2-5.1c-2.3-.2-3.9-2.1-3.8-4.4.2-2.1 1.8-3.7 3.8-3.8zM38.8 112.7l98.9-5.1c5.1-.2 9.4 3.7 9.7 8.8.3 5.1-3.7 9.4-8.7 9.7h-1L38.8 121c-2.3-.1-4-2.1-3.9-4.3.1-2.2 1.8-3.9 3.9-4zM4.9 79.2l114.9-5.1c5.1-.2 9.4 3.7 9.6 8.8.2 5.1-3.7 9.4-8.8 9.6h-.8L4.9 87.4c-2.3-.1-4-2-3.9-4.3.1-2.1 1.8-3.8 3.9-3.9zM15.1 45.9l140.7-5.1c5.1-.2 9.4 3.8 9.6 8.9.2 5.1-3.8 9.4-8.9 9.5h-.7L15.1 54.1c-2.3-.1-4-2-3.9-4.2 0-2.2 1.8-3.9 3.9-4zM27.4 12.5l162.1-5.2c5.1-.2 9.4 3.8 9.5 8.9.2 5.1-3.8 9.3-8.9 9.5h-.6L27.4 20.6c-2.3-.1-4-2-4-4.2.1-2.1 1.9-3.9 4-3.9z"/></svg>