<svg aria-hidden="true" viewBox="0 0 24 24"><g fill-rule="evenodd"><path d="M10.589 18.859v1.1c0 .483.58 1.174 1.272 1.174.648 0 1.125-.626 1.125-1.174v-1.1h5.734a138.976 138.976 0 0 0-.697-1.056l-.217-.327a2.514 2.514 0 0 1-.39-1.29v-5.295c0-3.141-1.573-5.427-4.225-6.072l-.84-.204V2.957c0-.301-.297-.6-.588-.6s-.589.299-.589.6v1.658l-.84.204c-2.651.645-4.225 2.93-4.225 6.072v5.295c0 .42-.157.942-.386 1.284a192.32 192.32 0 0 1-.933 1.389h5.799zm8.565-1.806l.481.728c.338.513.566.866.66 1.02.366.603.048 1.414-.729 1.414H14.33c-.126 1.147-1.081 2.275-2.468 2.275-1.392 0-2.465-1.16-2.612-2.275H3.937c-.813 0-1.196-.815-.745-1.432.114-.156.345-.492.657-.954a202.179 202.179 0 0 0 .745-1.11c.08-.121.158-.38.158-.533v-5.295c0-3.66 1.887-6.474 5.066-7.34v-.594C9.818 1.909 10.72 1 11.763 1c1.042 0 1.945.909 1.945 1.957v.594c3.178.866 5.065 3.68 5.065 7.34v5.295c0 .157.076.409.162.537l.219.33z" fill-rule="nonzero"/><path d="M12.128 11.676l2.669 2.65c.12.12.12.314.002.435a.304.304 0 0 1-.43.003l-2.675-2.656-2.675 2.656a.304.304 0 0 1-.431-.003.309.309 0 0 1 .003-.434l2.668-2.65-2.668-2.651a.309.309 0 0 1-.003-.435.304.304 0 0 1 .431-.003l2.675 2.657 2.674-2.657a.304.304 0 0 1 .431.003.309.309 0 0 1-.002.435l-2.669 2.65z" stroke="currentColor" stroke-linecap="round"/></g></svg>