<svg aria-hidden="true" viewBox="0 0 24 24"><path d="M10.224 12.627l-1.502-1.505a.66.66 0 0 0-.934 0 .662.662 0 0 0 0 .935l1.979 1.981a.66.66 0 0 0 .948-.011l4.708-4.943a.662.662 0 0 0-.021-.934.66.66 0 0 0-.934.021l-4.244 4.456zm8.492 4.163s1.061 1.582 1.302 1.975c.24.394.1 1.03-.516 1.03H3.686c-.633 0-.86-.6-.544-1.03.316-.43 1.356-1.981 1.356-1.981a1.92 1.92 0 0 0 .273-.912v-5.19c0-3.531 1.822-6.379 5.126-7.176v-.797c0-.912.797-1.709 1.708-1.709.911 0 1.709.797 1.709 1.709v.797c3.303.797 5.125 3.645 5.125 7.176v5.19c0 .289.124.69.277.918z"/><path d="M11.278 21.897a2.285 2.285 0 0 0 2.278-2.278S12.1 19 11.37 19c-.79 0-2.37.619-2.37.619a2.285 2.285 0 0 0 2.278 2.278z"/></svg>