<svg aria-hidden="true" viewBox="0 0 24 24"><path d="M9.868 4.606c0 1.162-.918 2.105-2.05 2.105-1.133 0-2.052-.943-2.052-2.105 0-1.163.919-2.106 2.051-2.106 1.133 0 2.05.943 2.05 2.106zM3.224 3.88H4.67v1.775H3.224c-.4 0-.724-.397-.724-.887s.324-.888.724-.888zm17.592 1.775h-9.704V3.881h9.704c.378 0 .684.397.684.888 0 .49-.306.887-.684.887zM17.791 11.9c0 1.163-.918 2.105-2.05 2.105-1.133 0-2.051-.942-2.051-2.105s.918-2.106 2.05-2.106c1.133 0 2.051.943 2.051 2.106zm-11.19 7.493c0 1.163-.918 2.106-2.05 2.106-1.133 0-2.051-.943-2.051-2.106 0-1.162.918-2.105 2.05-2.105 1.133 0 2.051.943 2.051 2.105zm12.271-6.363v-1.775h2.029c.317 0 .573.397.573.887s-.256.888-.573.888h-2.029zm-6.54-1.775v1.775H3.221c-.398 0-.721-.397-.721-.888 0-.49.323-.887.721-.887h9.111zm-4.594 9.153v-1.776h13.067c.376 0 .681.398.681.888s-.305.888-.681.888H7.738z"/></svg>