<svg aria-hidden="true" viewBox="0 0 24 24"><g transform="translate(2 3)" fill-rule="evenodd"><circle cx="9.385" cy="10.385" r="1.385"/><path fill="none" d="M13.82 6.877A5.71 5.71 0 0 0 8.86 4 5.708 5.708 0 0 0 4 6.71m12.861-2.677C14.861 1.573 11.811 0 8.394 0A10.881 10.881 0 0 0 0 3.944" stroke="currentColor" stroke-width="1.5" stroke-linecap="round"/><path d="M17.67 15.213l2.7 2.681a.314.314 0 0 1 .003.44.307.307 0 0 1-.437.003l-2.705-2.687-2.706 2.687a.307.307 0 0 1-.436-.003.312.312 0 0 1 .003-.44l2.7-2.68-2.7-2.682a.312.312 0 0 1-.003-.44.307.307 0 0 1 .436-.002l2.706 2.687 2.705-2.687a.307.307 0 0 1 .437.003.312.312 0 0 1-.003.439l-2.7 2.681z" stroke="currentColor" stroke-width=".75" stroke-linecap="round"/></g></svg>