<svg aria-hidden="true" viewBox="0 0 25 24"><path d="M20.283 16.19c-.3.498-.698.997-1.197 1.496-3.092 3.092-8.18 3.092-11.272 0-3.092-3.092-3.092-8.18 0-11.272 2.893-2.893 7.382-3.092 10.574-.698L16.99 7.112c-2.294-1.696-5.586-1.496-7.68.599-2.295 2.294-2.295 6.085 0 8.479 2.294 2.394 6.084 2.294 8.478 0 .499-.5.798-.998 1.098-1.497l-1.497-1.496c-.2.599-.498 1.197-.997 1.696-1.596 1.596-4.09 1.596-5.686 0s-1.596-4.09 0-5.686c1.297-1.297 3.292-1.496 4.888-.599l-1.496 1.497a1.9 1.9 0 0 0-1.896.498c-.798.798-.798 2.095 0 2.794.798.698 2.095.798 2.793 0 .499-.5.699-1.297.499-1.896l.1-.1 5.785-5.785-.698-.698c-3.99-3.89-10.374-3.89-14.264 0-3.89 3.89-3.89 10.274 0 14.164a9.934 9.934 0 0 0 14.065 0c.498-.498.798-.897 1.197-1.396l-1.397-1.496z"/></svg>