<svg aria-hidden="true" viewBox="0 0 24 24"><path d="M19.701 9.808c.054.14.12.209.25.254.683.239 1.366.483 2.049.724v2.428c-.683.242-1.368.48-2.048.73a.434.434 0 0 0-.228.206 60.18 60.18 0 0 0-.739 1.782.398.398 0 0 0 0 .281c.279.609.566 1.213.86 1.814.071.145.063.236-.059.354-.477.46-.945.929-1.405 1.405-.118.122-.209.13-.354.06-.593-.292-1.194-.568-1.787-.86-.133-.066-.226-.045-.355.012-.559.247-1.122.487-1.693.703-.14.054-.209.119-.254.249-.239.684-.482 1.367-.724 2.05h-2.428c-.242-.683-.48-1.368-.73-2.048a.434.434 0 0 0-.206-.228 60.361 60.361 0 0 0-1.782-.739.398.398 0 0 0-.281 0c-.609.28-1.213.566-1.814.86-.145.071-.236.063-.354-.059a56.12 56.12 0 0 0-1.405-1.405c-.122-.118-.13-.209-.06-.354.292-.593.568-1.194.86-1.787.066-.132.045-.226-.012-.355a34.454 34.454 0 0 1-.703-1.693c-.054-.14-.119-.209-.249-.254-.684-.239-1.367-.482-2.05-.724v-2.428c.683-.241 1.366-.485 2.05-.724.13-.045.195-.114.249-.254.216-.57.455-1.133.702-1.692.057-.129.08-.222.014-.355-.293-.593-.569-1.194-.86-1.787-.07-.144-.065-.235.058-.354.477-.46.945-.929 1.405-1.405.117-.12.207-.133.353-.061.593.292 1.194.568 1.787.86.132.064.228.045.358-.013A34.522 34.522 0 0 1 9.808 4.3c.14-.054.209-.119.254-.25.239-.683.482-1.366.724-2.049h2.428c.242.683.485 1.366.724 2.05.045.13.114.195.254.249.57.216 1.134.456 1.692.702.13.058.226.077.358.012.593-.291 1.194-.567 1.787-.86.145-.07.236-.059.353.062.46.476.928.945 1.405 1.405.123.119.129.21.058.354-.291.593-.567 1.194-.86 1.787-.065.133-.043.226.014.355.247.559.486 1.121.702 1.692zM6.868 12a5.132 5.132 0 1 0 10.264 0 5.132 5.132 0 0 0-10.264 0z"/></svg>