<svg aria-hidden="true" viewBox="0 0 24 24"><path d="M17.165 7.475h2.192c.837 0 1.518.68 1.518 1.517v13.49A1.52 1.52 0 0 1 19.357 24H4.518A1.52 1.52 0 0 1 3 22.483V8.993c0-.837.68-1.518 1.518-1.518H6.71V9.16H5.192a.507.507 0 0 0-.506.506v12.14c0 .28.228.507.506.507h13.49a.507.507 0 0 0 .506-.506V9.667a.507.507 0 0 0-.506-.506h-1.517V7.475zm-8.032-2.66a.848.848 0 0 1-1.17 0 .828.828 0 0 1 0-1.169L11.27.34a.287.287 0 0 1 .066-.1.804.804 0 0 1 .361-.2.72.72 0 0 1 .177-.034l.07-.006h.01a.825.825 0 0 1 .586.24.42.42 0 0 1 .07.098l3.303 3.308a.828.828 0 0 1 0 1.17.849.849 0 0 1-1.17 0L12.78 2.855V15.68a.844.844 0 0 1-1.687 0V2.855l-1.96 1.96z"/></svg>